<?xml version="1.0" encoding="UTF-8" standalone="no"?>
<!-- Created with Inkscape (http://www.inkscape.org/) -->

<svg
   xmlns:ns0="http://www.iki.fi/pav/software/textext/"
   xmlns:dc="http://purl.org/dc/elements/1.1/"
   xmlns:cc="http://creativecommons.org/ns#"
   xmlns:rdf="http://www.w3.org/1999/02/22-rdf-syntax-ns#"
   xmlns:svg="http://www.w3.org/2000/svg"
   xmlns="http://www.w3.org/2000/svg"
   xmlns:sodipodi="http://sodipodi.sourceforge.net/DTD/sodipodi-0.dtd"
   xmlns:inkscape="http://www.inkscape.org/namespaces/inkscape"
   width="300"
   height="300"
   id="svg2"
   version="1.1"
   inkscape:version="0.48.4 r9939"
   sodipodi:docname="pdControl.svg">
  <sodipodi:namedview
     id="base"
     pagecolor="#ffffff"
     bordercolor="#666666"
     borderopacity="1.0"
     inkscape:pageopacity="0.0"
     inkscape:pageshadow="2"
     inkscape:zoom="2.1425335"
     inkscape:cx="138.18826"
     inkscape:cy="167.33154"
     inkscape:document-units="px"
     inkscape:current-layer="svg2"
     showgrid="false"
     inkscape:window-width="1855"
     inkscape:window-height="1056"
     inkscape:window-x="65"
     inkscape:window-y="24"
     inkscape:window-maximized="1" />
  <defs
     id="defs4" />
  <metadata
     id="metadata7">
    <rdf:RDF>
      <cc:Work
         rdf:about="">
        <dc:format>image/svg+xml</dc:format>
        <dc:type
           rdf:resource="http://purl.org/dc/dcmitype/StillImage" />
        <dc:title />
      </cc:Work>
    </rdf:RDF>
  </metadata>
  <g
     inkscape:label="Layer 1"
     inkscape:groupmode="layer"
     id="layer1"
     transform="translate(0,-752.36218)" />
  <g
     id="g4322"
     transform="matrix(1.0135042,0,0,0.59317625,3.4618098,101.18986)">
    <path
       inkscape:connector-curvature="0"
       id="path4320"
       d="M 6.4605889,233.21429 280.68228,233.21429"
       style="fill:none;stroke:#2f2f2f;stroke-width:2.5794394;stroke-linecap:round;stroke-miterlimit:4;stroke-opacity:1;stroke-dasharray:none;stroke-dashoffset:0" />
    <path
       inkscape:connector-curvature="0"
       id="path4318"
       d="M 14.180737,287.80369 14.180737,55.053469"
       style="fill:none;stroke:#2f2f2f;stroke-width:2.5794394;stroke-linecap:round;stroke-miterlimit:4;stroke-opacity:1;stroke-dasharray:none;stroke-dashoffset:0" />
    <path
       id="path4310"
       d="M 15,64.964876 C 19.661654,74.622174 24.323308,96.933482 28.984962,121.95094 33.646617,146.96841 38.308271,174.50426 42.969925,197.94343 47.631579,221.3826 52.293234,240.7271 56.954888,253.8917 61.616542,267.05631 66.278196,274.13253 70.93985,276.36326 75.601505,278.59399 80.263159,276.08324 84.924813,271.40546 89.586467,266.72767 94.248121,259.952 98.909776,253.35203 103.57143,246.75206 108.23308,240.35001 112.89474,235.34158 117.55639,230.33315 122.21805,226.70584 126.8797,224.58269 131.54136,222.45953 136.20301,221.81394 140.86466,222.12965 145.52632,222.44536 150.18797,223.69871 154.84963,225.22902 159.51128,226.75933 164.17293,228.55404 168.83459,230.1382 173.49624,231.72237 178.1579,233.09456 182.81955,234.07259 187.48121,235.05061 192.14286,235.63975 196.80451,235.89192 201.46617,236.14409 206.12782,236.06614 210.78948,235.81792 215.45113,235.56969 220.11279,235.15614 224.77444,234.73233 229.43609,234.30852 234.09775,233.87637 238.7594,233.52608 243.42106,233.17578 248.08271,232.90683 252.74436,232.73755 257.40602,232.56827 262.06767,232.497 266.72933,232.49521 271.39098,232.49341 276.05264,232.55947 280.71429,232.65051"
       style="fill:none;stroke:#001fc1;stroke-width:3.86915922;stroke-linecap:round;stroke-miterlimit:4;stroke-opacity:1;stroke-dasharray:none;stroke-dashoffset:0"
       inkscape:connector-curvature="0" />
  </g>
  <text
     xml:space="preserve"
     style="font-size:32px;font-style:normal;font-variant:normal;font-weight:bold;font-stretch:normal;line-height:125%;letter-spacing:0px;word-spacing:0px;fill:#000000;fill-opacity:1;stroke:none;font-family:Amiri Quran;-inkscape-font-specification:Sans Bold"
     x="51.703125"
     y="49.987244"
     id="text4327"
     sodipodi:linespacing="125%"><tspan
       sodipodi:role="line"
       id="tspan4329"
       x="51.703125"
       y="49.987244">PD-Control</tspan></text>
  <g
     style="font-style:normal;font-variant:normal;font-weight:normal;font-stretch:normal;letter-spacing:normal;word-spacing:normal;text-anchor:start;fill:none;stroke:#000000;stroke-width:0.48314846;stroke-linecap:butt;stroke-linejoin:miter;stroke-miterlimit:10.43299961;stroke-opacity:1;stroke-dasharray:none;stroke-dashoffset:0"
     ns0:preamble="/home/matt/Dropbox/Writing/texTextPreamble.ini"
     ns0:text="$u = k_p (x_{ref}-x) + k_d (\\dot{x}_{ref}-\\dot{x})$"
     word-spacing="normal"
     letter-spacing="normal"
     font-size-adjust="none"
     font-stretch="normal"
     font-weight="normal"
     font-variant="normal"
     font-style="normal"
     stroke-miterlimit="10.433"
     xml:space="preserve"
     transform="matrix(2.0199698,0,0,-2.1207715,-443.15866,1115.0997)"
     id="content"><path
       id="path3033"
       d="M 226.91,477.79 226.93,477.75 226.94,477.72 226.95,477.68 226.97,477.65 226.98,477.61 227,477.58 227.02,477.55 227.04,477.52 227.06,477.49 227.08,477.46 227.11,477.43 227.13,477.4 227.16,477.38 227.18,477.35 227.21,477.33 227.24,477.31 227.27,477.28 227.3,477.27 227.33,477.25 227.36,477.23 227.39,477.21 227.43,477.2 227.46,477.18 227.5,477.17 227.53,477.16 227.57,477.15 227.61,477.14 227.64,477.14 227.68,477.13 227.72,477.13 227.76,477.13 227.8,477.13 C 228.15,477.13 228.38,477.35 228.54,477.67 228.71,478.03 228.83,478.64 228.83,478.66 228.83,478.76 228.74,478.76 228.71,478.76 228.62,478.76 228.61,478.71 228.58,478.58 228.44,478.02 228.25,477.34 227.83,477.34 227.62,477.34 227.52,477.47 227.52,477.8 227.52,478.02 227.64,478.49 227.72,478.83 L 228,479.91 C 228.03,480.06 228.13,480.43 228.17,480.58 228.22,480.81 228.32,481.19 228.32,481.25 228.32,481.43 228.18,481.52 228.03,481.52 227.98,481.52 227.72,481.51 227.64,481.17 227.45,480.44 227.01,478.7 226.89,478.18 226.88,478.14 226.49,477.34 225.76,477.34 225.24,477.34 225.14,477.79 225.14,478.16 225.14,478.71 225.42,479.5 225.68,480.18 225.8,480.48 225.85,480.62 225.85,480.81 225.85,481.26 225.53,481.63 225.03,481.63 224.09,481.63 223.72,480.18 223.72,480.1 223.72,480 223.82,480 223.84,480 223.94,480 223.95,480.02 224,480.17 224.25,481.04 224.63,481.41 225,481.41 225.09,481.41 225.25,481.4 225.25,481.08 225.25,480.84 225.14,480.55 225.08,480.4 224.71,479.42 224.51,478.8 224.51,478.32 224.51,477.37 225.19,477.13 225.73,477.13 226.39,477.13 226.74,477.57 226.91,477.79 z"
       inkscape:connector-curvature="0"
       style="fill:#000000;stroke-width:0" /><path
       id="path3035"
       d="M 238.74,480.48 238.77,480.48 238.8,480.48 238.82,480.48 238.84,480.49 238.85,480.49 238.87,480.49 238.88,480.49 238.9,480.49 238.91,480.49 238.92,480.5 238.94,480.5 238.95,480.5 238.96,480.51 238.98,480.51 238.99,480.52 239,480.52 239.01,480.53 239.02,480.54 239.03,480.55 239.04,480.56 239.04,480.57 239.05,480.57 239.05,480.58 239.05,480.58 239.06,480.59 239.06,480.6 239.06,480.6 239.07,480.61 239.07,480.62 239.07,480.62 239.07,480.63 239.07,480.64 239.07,480.65 239.07,480.66 239.08,480.66 239.08,480.67 239.08,480.68 C 239.08,480.88 238.89,480.88 238.75,480.88 H 232.79 C 232.65,480.88 232.46,480.88 232.46,480.68 232.46,480.48 232.65,480.48 232.8,480.48 z"
       inkscape:connector-curvature="0"
       style="fill:#000000;stroke-width:0" /><path
       id="path3037"
       d="M 238.75,478.56 238.76,478.56 238.77,478.56 238.8,478.56 238.83,478.56 238.84,478.56 238.86,478.56 238.87,478.56 238.89,478.56 238.9,478.56 238.91,478.57 238.93,478.57 238.94,478.57 238.95,478.58 238.96,478.58 238.98,478.59 238.99,478.59 239,478.6 239.01,478.6 239.02,478.61 239.03,478.62 239.04,478.63 239.04,478.63 239.04,478.64 239.05,478.65 239.05,478.65 239.05,478.66 239.06,478.66 239.06,478.67 239.06,478.68 239.07,478.68 239.07,478.69 239.07,478.7 239.07,478.7 239.07,478.71 239.07,478.72 239.07,478.73 239.08,478.74 239.08,478.75 239.08,478.76 C 239.08,478.95 238.89,478.95 238.74,478.95 H 232.8 C 232.65,478.95 232.46,478.95 232.46,478.76 232.46,478.56 232.65,478.56 232.79,478.56 z"
       inkscape:connector-curvature="0"
       style="fill:#000000;stroke-width:0" /><path
       id="path3039"
       d="M 245.27,484.02 245.27,484.02 245.27,484.02 245.27,484.02 245.27,484.02 245.27,484.03 245.27,484.03 245.27,484.03 245.27,484.04 245.27,484.04 245.27,484.05 245.27,484.05 245.27,484.05 245.27,484.06 245.27,484.06 245.26,484.07 245.26,484.07 245.26,484.08 245.25,484.08 245.25,484.09 245.25,484.09 245.24,484.1 245.24,484.1 245.24,484.1 245.23,484.1 245.23,484.11 245.23,484.11 245.23,484.11 245.22,484.11 245.22,484.11 245.22,484.12 245.21,484.12 245.21,484.12 245.2,484.12 245.2,484.12 245.2,484.12 245.19,484.12 245.19,484.12 245.18,484.13 245.18,484.13 245.17,484.13 245.17,484.13 245.16,484.13 245.16,484.13 245.15,484.13 245.15,484.13 C 244.92,484.13 244.19,484.05 243.93,484.03 243.85,484.02 243.74,484.01 243.74,483.83 243.74,483.71 243.83,483.71 243.98,483.71 244.46,483.71 244.48,483.64 244.48,483.54 L 244.45,483.34 243.01,477.62 C 242.97,477.48 242.97,477.46 242.97,477.4 242.97,477.17 243.16,477.13 243.26,477.13 243.38,477.13 243.53,477.21 243.59,477.33 243.64,477.42 244.09,479.26 244.15,479.51 244.49,479.48 245.3,479.32 245.3,478.67 245.3,478.6 245.3,478.56 245.27,478.46 245.25,478.34 245.24,478.22 245.24,478.11 245.24,477.52 245.63,477.13 246.15,477.13 246.45,477.13 246.72,477.29 246.94,477.65 247.18,478.09 247.29,478.64 247.29,478.66 247.29,478.76 247.21,478.76 247.18,478.76 247.07,478.76 247.07,478.71 247.04,478.58 246.84,477.85 246.61,477.34 246.17,477.34 245.98,477.34 245.85,477.45 245.85,477.81 245.85,477.98 245.89,478.21 245.93,478.37 245.97,478.54 245.97,478.58 245.97,478.67 245.97,479.32 245.34,479.61 244.5,479.72 244.81,479.9 245.12,480.21 245.35,480.45 245.83,480.98 246.29,481.41 246.78,481.41 246.84,481.41 246.85,481.41 246.87,481.4 246.99,481.38 247,481.38 247.07,481.32 247.1,481.31 247.1,481.3 247.12,481.28 246.64,481.25 246.55,480.86 246.55,480.74 246.55,480.58 246.66,480.39 246.93,480.39 247.18,480.39 247.47,480.61 247.47,481 247.47,481.3 247.24,481.63 246.8,481.63 246.52,481.63 246.06,481.55 245.34,480.75 245.01,480.37 244.62,479.98 244.24,479.83 z"
       inkscape:connector-curvature="0"
       style="fill:#000000;stroke-width:0" /><path
       id="path3041"
       d="M 248.13,474.89 248.12,474.88 248.12,474.86 248.11,474.84 248.11,474.83 248.11,474.81 248.1,474.8 248.1,474.78 248.09,474.77 248.09,474.76 248.08,474.75 248.08,474.74 248.07,474.73 248.07,474.72 248.06,474.71 248.05,474.7 248.04,474.69 248.03,474.69 248.03,474.68 248.01,474.68 248,474.67 247.99,474.67 247.98,474.66 247.97,474.66 247.95,474.65 247.93,474.65 247.93,474.65 247.92,474.65 247.91,474.65 247.9,474.65 247.89,474.65 247.88,474.64 247.87,474.64 247.86,474.64 247.85,474.64 247.84,474.64 247.82,474.64 247.81,474.64 247.8,474.64 247.79,474.64 C 247.7,474.64 247.6,474.64 247.6,474.5 247.6,474.42 247.66,474.39 247.7,474.39 247.88,474.39 248.11,474.42 248.29,474.42 248.53,474.42 248.8,474.39 249.03,474.39 249.09,474.39 249.16,474.41 249.16,474.55 249.16,474.64 249.07,474.64 248.98,474.64 248.83,474.64 248.64,474.64 248.64,474.73 248.64,474.76 248.69,474.94 248.72,475.05 248.8,475.41 248.9,475.79 248.98,476.08 249.06,475.94 249.28,475.67 249.69,475.67 V 475.87 C 249.2,475.87 249.07,476.4 249.07,476.47 249.07,476.5 249.09,476.55 249.1,476.58 L 249.44,477.97 C 249.85,478.51 250.2,478.61 250.42,478.61 250.69,478.61 250.93,478.41 250.93,477.94 250.93,477.65 250.77,476.94 250.57,476.54 250.39,476.2 250.05,475.87 249.69,475.87 V 475.67 C 250.54,475.67 251.48,476.61 251.48,477.65 251.48,478.46 250.92,478.81 250.44,478.81 250.01,478.81 249.64,478.52 249.45,478.32 249.33,478.72 248.94,478.81 248.73,478.81 248.46,478.81 248.29,478.63 248.18,478.44 248.04,478.2 247.93,477.79 247.93,477.74 247.93,477.65 248.03,477.65 248.05,477.65 248.15,477.65 248.15,477.67 248.2,477.86 248.31,478.27 248.44,478.61 248.71,478.61 248.89,478.61 248.94,478.46 248.94,478.27 248.94,478.2 248.93,478.11 248.92,478.06 z"
       inkscape:connector-curvature="0"
       style="fill:#000000;stroke-width:0" /><path
       id="path3043"
       d="M 255.5,474.85 255.5,474.86 255.5,474.86 255.5,474.86 255.5,474.87 255.5,474.87 255.5,474.87 255.5,474.88 255.5,474.88 255.5,474.88 255.49,474.89 255.49,474.89 255.49,474.9 255.49,474.9 255.48,474.91 255.48,474.91 255.47,474.92 255.47,474.93 255.46,474.93 255.46,474.94 255.46,474.94 255.45,474.95 255.45,474.95 255.44,474.95 255.44,474.96 255.44,474.96 255.43,474.97 255.43,474.97 255.42,474.98 255.42,474.98 255.41,474.99 255.41,474.99 255.4,475 255.4,475.01 255.39,475.01 255.38,475.02 255.38,475.03 255.37,475.03 255.36,475.04 255.36,475.05 255.35,475.05 255.34,475.06 255.33,475.07 C 254.09,476.32 253.77,478.2 253.77,479.72 253.77,481.45 254.15,483.17 255.37,484.42 255.5,484.54 255.5,484.56 255.5,484.59 255.5,484.66 255.46,484.68 255.4,484.68 255.3,484.68 254.41,484.01 253.82,482.75 253.31,481.66 253.2,480.55 253.2,479.72 253.2,478.94 253.3,477.74 253.85,476.62 254.45,475.4 255.3,474.75 255.4,474.75 255.46,474.75 255.5,474.78 255.5,474.85 z"
       inkscape:connector-curvature="0"
       style="fill:#000000;stroke-width:0" /><path
       id="path3045"
       d="M 259.41,480.23 259.41,480.26 259.42,480.29 259.43,480.32 259.44,480.36 259.45,480.4 259.46,480.44 259.47,480.48 259.49,480.53 259.51,480.57 259.52,480.62 259.54,480.67 259.56,480.72 259.58,480.77 259.61,480.82 259.63,480.87 259.66,480.92 259.69,480.97 259.72,481.01 259.76,481.06 259.79,481.1 259.83,481.15 259.87,481.19 259.91,481.23 259.95,481.26 260,481.29 260.05,481.32 260.07,481.33 260.1,481.35 260.13,481.36 260.15,481.37 260.18,481.38 260.21,481.38 260.24,481.39 260.27,481.4 260.3,481.4 260.33,481.4 260.36,481.41 260.39,481.41 C 260.44,481.41 260.68,481.41 260.89,481.28 260.61,481.23 260.41,480.98 260.41,480.74 260.41,480.58 260.52,480.39 260.79,480.39 261.01,480.39 261.33,480.57 261.33,480.97 261.33,481.49 260.74,481.63 260.4,481.63 259.83,481.63 259.48,481.1 259.36,480.87 259.11,481.53 258.57,481.63 258.28,481.63 257.25,481.63 256.68,480.34 256.68,480.1 256.68,480 256.78,480 256.8,480 256.88,480 256.91,480.02 256.93,480.11 257.27,481.16 257.93,481.41 258.26,481.41 258.45,481.41 258.8,481.32 258.8,480.74 258.8,480.43 258.63,479.77 258.26,478.38 258.11,477.76 257.76,477.34 257.32,477.34 257.26,477.34 257.03,477.34 256.82,477.47 257.07,477.52 257.29,477.73 257.29,478.01 257.29,478.28 257.07,478.36 256.92,478.36 256.62,478.36 256.37,478.1 256.37,477.78 256.37,477.32 256.87,477.13 257.31,477.13 257.96,477.13 258.32,477.82 258.35,477.88 258.47,477.51 258.83,477.13 259.43,477.13 260.45,477.13 261.02,478.41 261.02,478.66 261.02,478.76 260.93,478.76 260.9,478.76 260.81,478.76 260.79,478.71 260.77,478.65 260.44,477.58 259.77,477.34 259.45,477.34 259.06,477.34 258.9,477.66 258.9,478 258.9,478.22 258.96,478.44 259.07,478.87 z"
       inkscape:connector-curvature="0"
       style="fill:#000000;stroke-width:0" /><path
       id="path3047"
       d="M 263.42,477.15 263.42,477.15 263.42,477.15 263.42,477.16 263.42,477.16 263.42,477.17 263.42,477.17 263.42,477.18 263.43,477.19 263.43,477.19 263.43,477.2 263.43,477.21 263.43,477.22 263.44,477.23 263.44,477.24 263.45,477.27 263.45,477.29 263.46,477.32 263.47,477.35 263.47,477.38 263.48,477.41 263.49,477.44 263.5,477.5 263.52,477.56 263.53,477.59 263.54,477.62 263.54,477.65 263.55,477.68 263.56,477.7 263.56,477.73 263.57,477.75 263.57,477.76 263.58,477.77 263.58,477.78 263.58,477.79 263.58,477.8 263.59,477.81 263.59,477.82 263.59,477.82 263.59,477.83 263.59,477.83 263.59,477.84 263.6,477.84 263.6,477.85 263.6,477.85 C 263.61,477.9 263.81,478.25 264.04,478.42 264.11,478.47 264.3,478.61 264.6,478.61 264.67,478.61 264.84,478.61 264.98,478.52 264.76,478.45 264.68,478.26 264.68,478.13 264.68,477.98 264.8,477.88 264.95,477.88 265.11,477.88 265.35,478.01 265.35,478.3 265.35,478.66 264.96,478.81 264.61,478.81 264.24,478.81 263.93,478.66 263.62,478.31 263.5,478.74 263.07,478.81 262.91,478.81 262.65,478.81 262.48,478.65 262.36,478.45 262.2,478.18 262.11,477.78 262.11,477.74 262.11,477.65 262.2,477.65 262.23,477.65 262.32,477.65 262.33,477.67 262.38,477.86 262.48,478.29 262.61,478.61 262.89,478.61 263.07,478.61 263.12,478.46 263.12,478.27 263.12,478.14 263.05,477.88 263.01,477.7 262.96,477.51 262.89,477.22 262.85,477.07 L 262.63,476.18 C 262.6,476.09 262.56,475.92 262.56,475.89 262.56,475.74 262.68,475.67 262.8,475.67 262.9,475.67 263.04,475.73 263.1,475.87 263.11,475.92 263.19,476.22 263.23,476.39 z"
       inkscape:connector-curvature="0"
       style="fill:#000000;stroke-width:0" /><path
       id="path3049"
       d="M 267.25,477.33 267.27,477.33 267.29,477.33 267.32,477.33 267.34,477.33 267.37,477.33 267.4,477.33 267.43,477.33 267.46,477.33 267.49,477.33 267.52,477.33 267.56,477.34 267.6,477.34 267.63,477.34 267.67,477.34 267.75,477.35 267.83,477.36 267.91,477.37 267.99,477.38 268.07,477.39 268.15,477.41 268.19,477.42 268.23,477.43 268.27,477.44 268.3,477.45 268.34,477.46 268.38,477.47 C 268.89,477.65 268.99,477.99 268.99,478.2 268.99,478.58 268.61,478.81 268.12,478.81 V 478.61 C 268.43,478.61 268.69,478.46 268.69,478.2 268.69,477.52 267.51,477.52 267.21,477.52 H 266.87 C 267.16,478.53 267.93,478.61 268.12,478.61 V 478.81 C 267.29,478.81 266.16,478.17 266.16,476.98 266.16,476.28 266.6,475.67 267.41,475.67 268.59,475.67 269.14,476.36 269.14,476.46 269.14,476.5 269.08,476.58 269.02,476.58 268.98,476.58 268.97,476.56 268.91,476.51 268.37,475.87 267.55,475.87 267.43,475.87 267.01,475.87 266.73,476.14 266.73,476.71 266.73,476.8 266.73,476.94 266.82,477.33 z"
       inkscape:connector-curvature="0"
       style="fill:#000000;stroke-width:0" /><path
       id="path3051"
       d="M 272.31,478.49 H 272.99 C 273.13,478.49 273.22,478.49 273.22,478.64 273.22,478.74 273.13,478.74 273.01,478.74 H 272.36 C 272.52,479.62 272.57,479.94 272.63,480.14 272.66,480.3 272.82,480.44 272.98,480.44 272.99,480.44 273.18,480.44 273.31,480.36 273.03,480.27 273.01,480.02 273.01,479.98 273.01,479.82 273.12,479.72 273.28,479.72 273.47,479.72 273.68,479.88 273.68,480.14 273.68,480.46 273.34,480.64 272.98,480.64 272.68,480.64 272.34,480.46 272.15,480.11 272.01,479.86 271.95,479.55 271.81,478.74 H 271.26 C 271.12,478.74 271.03,478.74 271.03,478.58 271.03,478.49 271.12,478.49 271.24,478.49 H 271.76 C 271.75,478.45 271.31,475.94 271.14,475.2 271.11,475.05 270.99,474.52 270.66,474.52 270.65,474.52 270.48,474.52 270.35,474.6 270.64,474.69 270.66,474.94 270.66,474.98 270.66,475.14 270.54,475.24 270.38,475.24 270.19,475.24 269.98,475.08 269.98,474.82 269.98,474.5 270.31,474.32 270.66,474.32 271.1,474.32 271.41,474.78 271.49,474.93 271.74,475.4 271.9,476.26 271.92,476.34 z"
       inkscape:connector-curvature="0"
       style="fill:#000000;stroke-width:0" /><path
       id="path3053"
       d="M 283.41,479.52 283.44,479.52 283.47,479.52 283.5,479.52 283.52,479.52 283.53,479.52 283.55,479.52 283.56,479.53 283.58,479.53 283.59,479.53 283.61,479.53 283.62,479.54 283.63,479.54 283.65,479.54 283.66,479.55 283.67,479.56 283.68,479.56 283.69,479.57 283.7,479.58 283.71,479.58 283.72,479.59 283.73,479.6 283.73,479.61 283.73,479.61 283.74,479.62 283.74,479.63 283.74,479.63 283.74,479.64 283.75,479.65 283.75,479.65 283.75,479.66 283.75,479.67 283.75,479.68 283.75,479.68 283.75,479.69 283.76,479.7 283.76,479.71 283.76,479.72 C 283.76,479.92 283.58,479.92 283.41,479.92 H 278.02 C 277.86,479.92 277.68,479.92 277.68,479.72 277.68,479.52 277.86,479.52 278.02,479.52 z"
       inkscape:connector-curvature="0"
       style="fill:#000000;stroke-width:0" /><path
       id="path3055"
       d="M 290.14,480.23 290.14,480.26 290.15,480.29 290.16,480.32 290.17,480.36 290.18,480.4 290.19,480.44 290.2,480.48 290.22,480.53 290.23,480.57 290.25,480.62 290.27,480.67 290.29,480.72 290.31,480.77 290.34,480.82 290.36,480.87 290.39,480.92 290.42,480.97 290.45,481.01 290.48,481.06 290.52,481.1 290.56,481.15 290.6,481.19 290.64,481.23 290.68,481.26 290.73,481.29 290.78,481.32 290.8,481.33 290.83,481.35 290.85,481.36 290.88,481.37 290.91,481.38 290.94,481.38 290.97,481.39 291,481.4 291.03,481.4 291.06,481.4 291.09,481.41 291.12,481.41 C 291.17,481.41 291.41,481.41 291.62,481.28 291.34,481.23 291.14,480.98 291.14,480.74 291.14,480.58 291.25,480.39 291.52,480.39 291.74,480.39 292.06,480.57 292.06,480.97 292.06,481.49 291.47,481.63 291.13,481.63 290.55,481.63 290.21,481.1 290.09,480.87 289.84,481.53 289.3,481.63 289.01,481.63 287.98,481.63 287.41,480.34 287.41,480.1 287.41,480 287.51,480 287.53,480 287.61,480 287.64,480.02 287.66,480.11 288,481.16 288.65,481.41 288.99,481.41 289.18,481.41 289.53,481.32 289.53,480.74 289.53,480.43 289.36,479.77 288.99,478.38 288.83,477.76 288.48,477.34 288.05,477.34 287.99,477.34 287.76,477.34 287.55,477.47 287.8,477.52 288.02,477.73 288.02,478.01 288.02,478.28 287.8,478.36 287.65,478.36 287.35,478.36 287.1,478.1 287.1,477.78 287.1,477.32 287.6,477.13 288.04,477.13 288.69,477.13 289.05,477.82 289.08,477.88 289.2,477.51 289.56,477.13 290.16,477.13 291.18,477.13 291.75,478.41 291.75,478.66 291.75,478.76 291.66,478.76 291.63,478.76 291.54,478.76 291.52,478.71 291.5,478.65 291.17,477.58 290.49,477.34 290.18,477.34 289.79,477.34 289.63,477.66 289.63,478 289.63,478.22 289.69,478.44 289.8,478.87 z"
       inkscape:connector-curvature="0"
       style="fill:#000000;stroke-width:0" /><path
       id="path3057"
       d="M 295.38,479.72 295.38,479.79 295.38,479.87 295.38,479.95 295.38,480.03 295.37,480.2 295.36,480.37 295.34,480.55 295.32,480.74 295.29,480.94 295.26,481.14 295.22,481.34 295.17,481.55 295.12,481.76 295.06,481.97 294.99,482.18 294.91,482.39 294.87,482.5 294.82,482.61 294.78,482.71 294.73,482.82 C 294.13,484.04 293.27,484.68 293.17,484.68 293.11,484.68 293.07,484.65 293.07,484.59 293.07,484.56 293.07,484.54 293.26,484.36 294.24,483.37 294.8,481.8 294.8,479.72 294.8,478.02 294.44,476.27 293.2,475.02 293.07,474.9 293.07,474.88 293.07,474.85 293.07,474.79 293.11,474.75 293.17,474.75 293.27,474.75 294.17,475.43 294.76,476.69 295.26,477.78 295.38,478.88 295.38,479.72 z"
       inkscape:connector-curvature="0"
       style="fill:#000000;stroke-width:0" /><path
       id="path3059"
       d="M 302.66,479.52 H 305.44 C 305.58,479.52 305.77,479.52 305.77,479.72 305.77,479.92 305.58,479.92 305.44,479.92 H 302.66 V 482.7 C 302.66,482.84 302.66,483.03 302.46,483.03 302.26,483.03 302.26,482.84 302.26,482.7 V 479.92 H 299.48 C 299.34,479.92 299.15,479.92 299.15,479.72 299.15,479.52 299.34,479.52 299.48,479.52 H 302.26 V 476.74 C 302.26,476.6 302.26,476.41 302.46,476.41 302.66,476.41 302.66,476.6 302.66,476.74 z"
       inkscape:connector-curvature="0"
       style="fill:#000000;stroke-width:0" /><path
       id="path3061"
       d="M 311.41,484.02 311.41,484.02 311.41,484.02 311.41,484.02 311.41,484.02 311.41,484.03 311.41,484.03 311.41,484.03 311.41,484.04 311.41,484.04 311.41,484.05 311.41,484.05 311.41,484.05 311.41,484.06 311.4,484.06 311.4,484.07 311.4,484.07 311.4,484.08 311.39,484.08 311.39,484.09 311.39,484.09 311.38,484.1 311.38,484.1 311.38,484.1 311.37,484.1 311.37,484.11 311.37,484.11 311.37,484.11 311.36,484.11 311.36,484.11 311.36,484.12 311.35,484.12 311.35,484.12 311.34,484.12 311.34,484.12 311.34,484.12 311.33,484.12 311.33,484.12 311.32,484.13 311.32,484.13 311.31,484.13 311.31,484.13 311.3,484.13 311.3,484.13 311.29,484.13 311.28,484.13 C 311.05,484.13 310.33,484.05 310.07,484.03 309.99,484.02 309.88,484.01 309.88,483.83 309.88,483.71 309.97,483.71 310.12,483.71 310.6,483.71 310.62,483.64 310.62,483.54 L 310.59,483.34 309.14,477.62 C 309.11,477.48 309.11,477.46 309.11,477.4 309.11,477.17 309.3,477.13 309.39,477.13 309.52,477.13 309.67,477.21 309.73,477.33 309.78,477.42 310.23,479.26 310.29,479.51 310.63,479.48 311.44,479.32 311.44,478.67 311.44,478.6 311.44,478.56 311.41,478.46 311.39,478.34 311.37,478.22 311.37,478.11 311.37,477.52 311.77,477.13 312.29,477.13 312.59,477.13 312.86,477.29 313.08,477.65 313.32,478.09 313.43,478.64 313.43,478.66 313.43,478.76 313.34,478.76 313.31,478.76 313.21,478.76 313.2,478.71 313.17,478.58 312.98,477.85 312.75,477.34 312.31,477.34 312.12,477.34 311.99,477.45 311.99,477.81 311.99,477.98 312.03,478.21 312.07,478.37 312.11,478.54 312.11,478.58 312.11,478.67 312.11,479.32 311.48,479.61 310.64,479.72 310.95,479.9 311.26,480.21 311.49,480.45 311.97,480.98 312.43,481.41 312.92,481.41 312.98,481.41 312.98,481.41 313.01,481.4 313.12,481.38 313.14,481.38 313.21,481.32 313.23,481.31 313.23,481.3 313.25,481.28 312.78,481.25 312.69,480.86 312.69,480.74 312.69,480.58 312.8,480.39 313.07,480.39 313.32,480.39 313.61,480.61 313.61,481 313.61,481.3 313.38,481.63 312.94,481.63 312.66,481.63 312.2,481.55 311.48,480.75 311.14,480.37 310.76,479.98 310.38,479.83 z"
       inkscape:connector-curvature="0"
       style="fill:#000000;stroke-width:0" /><path
       id="path3063"
       d="M 317.72,480.36 317.72,480.36 317.72,480.36 317.72,480.36 317.72,480.36 317.72,480.36 317.72,480.36 317.72,480.37 317.73,480.37 317.73,480.37 317.73,480.37 317.73,480.38 317.73,480.38 317.73,480.38 317.73,480.39 317.73,480.39 317.73,480.4 317.74,480.4 317.74,480.41 317.74,480.42 317.74,480.43 317.74,480.43 317.74,480.44 317.74,480.44 317.74,480.44 317.75,480.45 317.75,480.45 317.75,480.46 317.75,480.46 317.75,480.46 317.75,480.46 317.75,480.46 317.75,480.46 317.75,480.46 317.75,480.47 317.75,480.47 317.75,480.47 317.75,480.47 317.75,480.47 317.75,480.47 317.75,480.47 C 317.75,480.5 317.72,480.57 317.64,480.57 317.5,480.57 316.92,480.51 316.75,480.5 316.69,480.49 316.59,480.48 316.59,480.34 316.59,480.24 316.69,480.24 316.77,480.24 317.11,480.24 317.11,480.19 317.11,480.14 317.11,480.09 317.1,480.05 317.08,479.98 L 316.68,478.4 C 316.54,478.63 316.3,478.81 315.97,478.81 V 478.61 C 316.45,478.61 316.59,478.08 316.59,478.01 316.59,477.98 316.57,477.93 316.57,477.91 L 316.24,476.61 C 316.19,476.42 316.04,476.28 315.88,476.14 315.82,476.09 315.54,475.87 315.24,475.87 314.98,475.87 314.73,476.05 314.73,476.54 314.73,476.91 314.94,477.67 315.1,477.95 315.42,478.51 315.77,478.61 315.97,478.61 V 478.81 C 315.08,478.81 314.17,477.83 314.17,476.83 314.17,476.15 314.62,475.67 315.22,475.67 315.6,475.67 315.93,475.89 316.21,476.16 316.34,475.74 316.75,475.67 316.93,475.67 317.18,475.67 317.35,475.82 317.48,476.04 317.63,476.31 317.72,476.71 317.72,476.73 317.72,476.83 317.63,476.83 317.61,476.83 317.51,476.83 317.51,476.8 317.46,476.61 317.37,476.28 317.24,475.87 316.95,475.87 316.77,475.87 316.72,476.02 316.72,476.21 316.72,476.34 316.73,476.4 316.75,476.49 z"
       inkscape:connector-curvature="0"
       style="fill:#000000;stroke-width:0" /><path
       id="path3065"
       d="M 321.68,474.85 321.68,474.86 321.68,474.86 321.68,474.86 321.68,474.87 321.68,474.87 321.68,474.87 321.68,474.88 321.68,474.88 321.68,474.88 321.67,474.89 321.67,474.89 321.67,474.9 321.67,474.9 321.66,474.91 321.66,474.91 321.65,474.92 321.65,474.93 321.64,474.93 321.64,474.94 321.64,474.94 321.63,474.95 321.63,474.95 321.62,474.95 321.62,474.96 321.62,474.96 321.61,474.97 321.61,474.97 321.6,474.98 321.6,474.98 321.59,474.99 321.59,474.99 321.58,475 321.58,475.01 321.57,475.01 321.56,475.02 321.56,475.03 321.55,475.03 321.54,475.04 321.54,475.05 321.53,475.05 321.52,475.06 321.51,475.07 C 320.27,476.32 319.95,478.2 319.95,479.72 319.95,481.45 320.33,483.17 321.55,484.42 321.68,484.54 321.68,484.56 321.68,484.59 321.68,484.66 321.64,484.68 321.58,484.68 321.48,484.68 320.59,484.01 320,482.75 319.49,481.66 319.38,480.55 319.38,479.72 319.38,478.94 319.48,477.74 320.03,476.62 320.63,475.4 321.48,474.75 321.58,474.75 321.64,474.75 321.68,474.78 321.68,474.85 z"
       inkscape:connector-curvature="0"
       style="fill:#000000;stroke-width:0" /><path
       id="path3067"
       d="M 325.92,483.35 325.92,483.38 325.92,483.4 325.91,483.43 325.91,483.45 325.9,483.48 325.89,483.5 325.89,483.53 325.88,483.55 325.87,483.57 325.86,483.59 325.84,483.62 325.83,483.64 325.82,483.66 325.8,483.68 325.78,483.7 325.77,483.72 325.75,483.74 325.73,483.75 325.71,483.77 325.69,483.78 325.67,483.8 325.65,483.81 325.62,483.83 325.6,483.84 325.57,483.85 325.55,483.86 325.53,483.86 325.5,483.87 325.47,483.87 325.45,483.88 325.42,483.88 325.39,483.88 C 325.05,483.88 324.85,483.6 324.85,483.35 324.85,483.09 325.08,482.83 325.38,482.83 325.72,482.83 325.92,483.11 325.92,483.35 z"
       inkscape:connector-curvature="0"
       style="fill:#000000;stroke-width:0" /><path
       id="path3069"
       d="M 325.59,480.23 325.59,480.26 325.6,480.29 325.61,480.32 325.62,480.36 325.63,480.4 325.64,480.44 325.65,480.48 325.67,480.53 325.69,480.57 325.7,480.62 325.72,480.67 325.74,480.72 325.76,480.77 325.79,480.82 325.81,480.87 325.84,480.92 325.87,480.97 325.9,481.01 325.94,481.06 325.97,481.1 326.01,481.15 326.05,481.19 326.09,481.23 326.13,481.26 326.18,481.29 326.23,481.32 326.25,481.33 326.28,481.35 326.31,481.36 326.33,481.37 326.36,481.38 326.39,481.38 326.42,481.39 326.45,481.4 326.48,481.4 326.51,481.4 326.54,481.41 326.57,481.41 C 326.62,481.41 326.86,481.41 327.07,481.28 326.79,481.23 326.59,480.98 326.59,480.74 326.59,480.58 326.7,480.39 326.97,480.39 327.19,480.39 327.51,480.57 327.51,480.97 327.51,481.49 326.92,481.63 326.58,481.63 326.01,481.63 325.66,481.1 325.54,480.87 325.29,481.53 324.75,481.63 324.46,481.63 323.43,481.63 322.86,480.34 322.86,480.1 322.86,480 322.96,480 322.98,480 323.06,480 323.09,480.02 323.11,480.11 323.45,481.16 324.11,481.41 324.44,481.41 324.63,481.41 324.98,481.32 324.98,480.74 324.98,480.43 324.81,479.77 324.44,478.38 324.29,477.76 323.94,477.34 323.5,477.34 323.44,477.34 323.21,477.34 323,477.47 323.25,477.52 323.47,477.73 323.47,478.01 323.47,478.28 323.25,478.36 323.1,478.36 322.8,478.36 322.55,478.1 322.55,477.78 322.55,477.32 323.05,477.13 323.49,477.13 324.14,477.13 324.5,477.82 324.53,477.88 324.65,477.51 325.01,477.13 325.61,477.13 326.63,477.13 327.2,478.41 327.2,478.66 327.2,478.76 327.11,478.76 327.08,478.76 326.99,478.76 326.97,478.71 326.95,478.65 326.62,477.58 325.95,477.34 325.63,477.34 325.24,477.34 325.08,477.66 325.08,478 325.08,478.22 325.14,478.44 325.25,478.87 z"
       inkscape:connector-curvature="0"
       style="fill:#000000;stroke-width:0" /><path
       id="path3071"
       d="M 329.6,477.15 329.6,477.15 329.6,477.15 329.6,477.16 329.6,477.16 329.6,477.17 329.6,477.17 329.6,477.18 329.6,477.19 329.61,477.19 329.61,477.2 329.61,477.21 329.61,477.22 329.62,477.23 329.62,477.24 329.62,477.27 329.63,477.29 329.64,477.32 329.64,477.35 329.65,477.38 329.66,477.41 329.67,477.44 329.68,477.5 329.7,477.56 329.71,477.59 329.71,477.62 329.72,477.65 329.73,477.68 329.74,477.7 329.74,477.73 329.75,477.75 329.75,477.76 329.75,477.77 329.76,477.78 329.76,477.79 329.76,477.8 329.76,477.81 329.77,477.82 329.77,477.82 329.77,477.83 329.77,477.83 329.77,477.84 329.77,477.84 329.78,477.85 329.78,477.85 C 329.79,477.9 329.99,478.25 330.21,478.42 330.29,478.47 330.48,478.61 330.78,478.61 330.85,478.61 331.02,478.61 331.16,478.52 330.94,478.45 330.86,478.26 330.86,478.13 330.86,477.98 330.97,477.88 331.13,477.88 331.29,477.88 331.52,478.01 331.52,478.3 331.52,478.66 331.14,478.81 330.79,478.81 330.42,478.81 330.11,478.66 329.8,478.31 329.68,478.74 329.25,478.81 329.09,478.81 328.83,478.81 328.65,478.65 328.54,478.45 328.38,478.18 328.29,477.78 328.29,477.74 328.29,477.65 328.38,477.65 328.4,477.65 328.5,477.65 328.51,477.67 328.56,477.86 328.66,478.29 328.79,478.61 329.07,478.61 329.25,478.61 329.3,478.46 329.3,478.27 329.3,478.14 329.23,477.88 329.18,477.7 329.14,477.51 329.07,477.22 329.03,477.07 L 328.81,476.18 C 328.78,476.09 328.74,475.92 328.74,475.89 328.74,475.74 328.86,475.67 328.98,475.67 329.08,475.67 329.22,475.73 329.27,475.87 329.29,475.92 329.36,476.22 329.41,476.39 z"
       inkscape:connector-curvature="0"
       style="fill:#000000;stroke-width:0" /><path
       id="path3073"
       d="M 333.43,477.33 333.45,477.33 333.47,477.33 333.5,477.33 333.52,477.33 333.55,477.33 333.58,477.33 333.61,477.33 333.64,477.33 333.67,477.33 333.7,477.33 333.74,477.34 333.77,477.34 333.81,477.34 333.85,477.34 333.93,477.35 334,477.36 334.09,477.37 334.17,477.38 334.25,477.39 334.33,477.41 334.37,477.42 334.41,477.43 334.44,477.44 334.48,477.45 334.52,477.46 334.55,477.47 C 335.07,477.65 335.17,477.99 335.17,478.2 335.17,478.58 334.78,478.81 334.3,478.81 V 478.61 C 334.61,478.61 334.87,478.46 334.87,478.2 334.87,477.52 333.69,477.52 333.39,477.52 H 333.05 C 333.34,478.53 334.11,478.61 334.3,478.61 V 478.81 C 333.47,478.81 332.34,478.17 332.34,476.98 332.34,476.28 332.78,475.67 333.59,475.67 334.77,475.67 335.32,476.36 335.32,476.46 335.32,476.5 335.26,476.58 335.2,476.58 335.16,476.58 335.15,476.56 335.09,476.51 334.55,475.87 333.73,475.87 333.61,475.87 333.19,475.87 332.91,476.14 332.91,476.71 332.91,476.8 332.91,476.94 332.99,477.33 z"
       inkscape:connector-curvature="0"
       style="fill:#000000;stroke-width:0" /><path
       id="path3075"
       d="M 338.49,478.49 H 339.17 C 339.31,478.49 339.4,478.49 339.4,478.64 339.4,478.74 339.31,478.74 339.18,478.74 H 338.54 C 338.7,479.62 338.75,479.94 338.81,480.14 338.84,480.3 339,480.44 339.16,480.44 339.17,480.44 339.36,480.44 339.49,480.36 339.2,480.27 339.18,480.02 339.18,479.98 339.18,479.82 339.3,479.72 339.46,479.72 339.65,479.72 339.86,479.88 339.86,480.14 339.86,480.46 339.52,480.64 339.16,480.64 338.86,480.64 338.52,480.46 338.33,480.11 338.19,479.86 338.13,479.55 337.99,478.74 H 337.44 C 337.3,478.74 337.21,478.74 337.21,478.58 337.21,478.49 337.3,478.49 337.42,478.49 H 337.94 C 337.93,478.45 337.49,475.94 337.32,475.2 337.29,475.05 337.17,474.52 336.84,474.52 336.83,474.52 336.66,474.52 336.53,474.6 336.82,474.69 336.84,474.94 336.84,474.98 336.84,475.14 336.72,475.24 336.56,475.24 336.37,475.24 336.16,475.08 336.16,474.82 336.16,474.5 336.49,474.32 336.84,474.32 337.28,474.32 337.59,474.78 337.67,474.93 337.92,475.4 338.08,476.26 338.1,476.34 z"
       inkscape:connector-curvature="0"
       style="fill:#000000;stroke-width:0" /><path
       id="path3077"
       d="M 349.59,479.52 349.62,479.52 349.65,479.52 349.68,479.52 349.7,479.52 349.71,479.52 349.73,479.52 349.74,479.53 349.76,479.53 349.77,479.53 349.79,479.53 349.8,479.54 349.81,479.54 349.83,479.54 349.84,479.55 349.85,479.56 349.86,479.56 349.87,479.57 349.88,479.58 349.89,479.58 349.9,479.59 349.91,479.6 349.91,479.61 349.91,479.61 349.92,479.62 349.92,479.63 349.92,479.63 349.92,479.64 349.93,479.65 349.93,479.65 349.93,479.66 349.93,479.67 349.93,479.68 349.93,479.68 349.93,479.69 349.94,479.7 349.94,479.71 349.94,479.72 C 349.94,479.92 349.76,479.92 349.59,479.92 H 344.2 C 344.04,479.92 343.86,479.92 343.86,479.72 343.86,479.52 344.04,479.52 344.2,479.52 z"
       inkscape:connector-curvature="0"
       style="fill:#000000;stroke-width:0" /><path
       id="path3079"
       d="M 356.64,483.35 356.64,483.38 356.64,483.4 356.64,483.43 356.63,483.45 356.63,483.48 356.62,483.5 356.61,483.53 356.6,483.55 356.59,483.57 356.58,483.59 356.57,483.62 356.55,483.64 356.54,483.66 356.52,483.68 356.51,483.7 356.49,483.72 356.47,483.74 356.45,483.75 356.43,483.77 356.41,483.78 356.39,483.8 356.37,483.81 356.35,483.83 356.32,483.84 356.3,483.85 356.28,483.86 356.25,483.86 356.22,483.87 356.2,483.87 356.17,483.88 356.14,483.88 356.12,483.88 C 355.78,483.88 355.58,483.6 355.58,483.35 355.58,483.09 355.81,482.83 356.11,482.83 356.44,482.83 356.64,483.11 356.64,483.35 z"
       inkscape:connector-curvature="0"
       style="fill:#000000;stroke-width:0" /><path
       id="path3081"
       d="M 356.32,480.23 356.32,480.26 356.33,480.29 356.34,480.32 356.35,480.36 356.36,480.4 356.37,480.44 356.38,480.48 356.4,480.53 356.41,480.57 356.43,480.62 356.45,480.67 356.47,480.72 356.49,480.77 356.52,480.82 356.54,480.87 356.57,480.92 356.6,480.97 356.63,481.01 356.66,481.06 356.7,481.1 356.74,481.15 356.78,481.19 356.82,481.23 356.86,481.26 356.91,481.29 356.96,481.32 356.98,481.33 357.01,481.35 357.03,481.36 357.06,481.37 357.09,481.38 357.12,481.38 357.15,481.39 357.18,481.4 357.21,481.4 357.24,481.4 357.27,481.41 357.3,481.41 C 357.35,481.41 357.59,481.41 357.8,481.28 357.52,481.23 357.32,480.98 357.32,480.74 357.32,480.58 357.43,480.39 357.7,480.39 357.92,480.39 358.24,480.57 358.24,480.97 358.24,481.49 357.65,481.63 357.31,481.63 356.73,481.63 356.39,481.1 356.27,480.87 356.02,481.53 355.48,481.63 355.19,481.63 354.16,481.63 353.59,480.34 353.59,480.1 353.59,480 353.69,480 353.71,480 353.79,480 353.82,480.02 353.84,480.11 354.18,481.16 354.83,481.41 355.17,481.41 355.36,481.41 355.71,481.32 355.71,480.74 355.71,480.43 355.54,479.77 355.17,478.38 355.01,477.76 354.66,477.34 354.23,477.34 354.17,477.34 353.94,477.34 353.73,477.47 353.98,477.52 354.2,477.73 354.2,478.01 354.2,478.28 353.98,478.36 353.83,478.36 353.53,478.36 353.28,478.1 353.28,477.78 353.28,477.32 353.78,477.13 354.22,477.13 354.87,477.13 355.23,477.82 355.26,477.88 355.38,477.51 355.74,477.13 356.34,477.13 357.36,477.13 357.93,478.41 357.93,478.66 357.93,478.76 357.84,478.76 357.81,478.76 357.72,478.76 357.7,478.71 357.68,478.65 357.35,477.58 356.67,477.34 356.36,477.34 355.97,477.34 355.81,477.66 355.81,478 355.81,478.22 355.87,478.44 355.98,478.87 z"
       inkscape:connector-curvature="0"
       style="fill:#000000;stroke-width:0" /><path
       id="path3083"
       d="M 361.56,479.72 361.56,479.79 361.56,479.87 361.56,479.95 361.56,480.03 361.55,480.2 361.54,480.37 361.52,480.55 361.5,480.74 361.47,480.94 361.44,481.14 361.4,481.34 361.35,481.55 361.3,481.76 361.24,481.97 361.17,482.18 361.09,482.39 361.05,482.5 361,482.61 360.96,482.71 360.91,482.82 C 360.31,484.04 359.45,484.68 359.35,484.68 359.29,484.68 359.25,484.65 359.25,484.59 359.25,484.56 359.25,484.54 359.44,484.36 360.42,483.37 360.98,481.8 360.98,479.72 360.98,478.02 360.62,476.27 359.38,475.02 359.25,474.9 359.25,474.88 359.25,474.85 359.25,474.79 359.29,474.75 359.35,474.75 359.45,474.75 360.35,475.43 360.93,476.69 361.44,477.78 361.56,478.88 361.56,479.72 z"
       inkscape:connector-curvature="0"
       style="fill:#000000;stroke-width:0" /></g>  <rect
     style="fill:none;stroke:#2f2f2f;stroke-width:2;stroke-linecap:round;stroke-miterlimit:4;stroke-opacity:1;stroke-dasharray:none;stroke-dashoffset:0"
     id="rect3121"
     width="298"
     height="298"
     x="1"
     y="1"
     rx="29.285715"
     ry="29.285715" />
</svg>
