<?xml version="1.0" encoding="UTF-8" standalone="no"?>
<!-- Created with Inkscape (http://www.inkscape.org/) -->

<svg
   xmlns:ns0="http://www.iki.fi/pav/software/textext/"
   xmlns:dc="http://purl.org/dc/elements/1.1/"
   xmlns:cc="http://creativecommons.org/ns#"
   xmlns:rdf="http://www.w3.org/1999/02/22-rdf-syntax-ns#"
   xmlns:svg="http://www.w3.org/2000/svg"
   xmlns="http://www.w3.org/2000/svg"
   xmlns:sodipodi="http://sodipodi.sourceforge.net/DTD/sodipodi-0.dtd"
   xmlns:inkscape="http://www.inkscape.org/namespaces/inkscape"
   sodipodi:docname="quadrature.svg"
   inkscape:version="0.91 r13725"
   version="1.1"
   id="svg2"
   height="300"
   width="300">
  <sodipodi:namedview
     id="base"
     pagecolor="#ffffff"
     bordercolor="#666666"
     borderopacity="1.0"
     inkscape:pageopacity="0.0"
     inkscape:pageshadow="2"
     inkscape:zoom="2.1425335"
     inkscape:cx="19.096989"
     inkscape:cy="193.28081"
     inkscape:document-units="px"
     inkscape:current-layer="svg2"
     showgrid="false"
     inkscape:window-width="1855"
     inkscape:window-height="1056"
     inkscape:window-x="1985"
     inkscape:window-y="24"
     inkscape:window-maximized="1" />
  <defs
     id="defs4">
    <marker
       style="overflow:visible;"
       id="Arrow1Mend"
       refX="0.0"
       refY="0.0"
       orient="auto"
       inkscape:stockid="Arrow1Mend">
      <path
         transform="scale(0.4) rotate(180) translate(10,0)"
         style="fill-rule:evenodd;stroke:#000000;stroke-width:1.0pt;"
         d="M 0.0,0.0 L 5.0,-5.0 L -12.5,0.0 L 5.0,5.0 L 0.0,0.0 z "
         id="path11983" />
    </marker>
    <marker
       inkscape:stockid="DotM"
       orient="auto"
       refY="0.0"
       refX="0.0"
       id="DotM"
       style="overflow:visible">
      <path
         id="path12038"
         d="M -2.5,-1.0 C -2.5,1.7600000 -4.7400000,4.0 -7.5,4.0 C -10.260000,4.0 -12.5,1.7600000 -12.5,-1.0 C -12.5,-3.7600000 -10.260000,-6.0 -7.5,-6.0 C -4.7400000,-6.0 -2.5,-3.7600000 -2.5,-1.0 z "
         style="fill-rule:evenodd;stroke:#000000;stroke-width:1.0pt"
         transform="scale(0.4) translate(7.4, 1)" />
    </marker>
    <marker
       inkscape:stockid="DotMJ"
       orient="auto"
       refY="0.0"
       refX="0.0"
       id="DotMJ"
       style="overflow:visible">
      <path
         id="path12420"
         d="M -2.5,-1.0 C -2.5,1.7600000 -4.7400000,4.0 -7.5,4.0 C -10.260000,4.0 -12.5,1.7600000 -12.5,-1.0 C -12.5,-3.7600000 -10.260000,-6.0 -7.5,-6.0 C -4.7400000,-6.0 -2.5,-3.7600000 -2.5,-1.0 z "
         style="stroke:#2f2f2f;stroke-width:1.0pt;fill:#2f2f2f;fill-rule:evenodd"
         transform="scale(0.4) translate(7.4, 1)" />
    </marker>
    <marker
       style="overflow:visible;"
       id="Arrow1Mend4"
       refX="0.0"
       refY="0.0"
       orient="auto"
       inkscape:stockid="Arrow1Mend4">
      <path
         transform="scale(0.4) rotate(180) translate(10,0)"
         style="stroke:#2f2f2f;stroke-width:1.0pt;fill:#2f2f2f;fill-rule:evenodd"
         d="M 0.0,0.0 L 5.0,-5.0 L -12.5,0.0 L 5.0,5.0 L 0.0,0.0 z "
         id="path12679" />
    </marker>
  </defs>
  <metadata
     id="metadata7">
    <rdf:RDF>
      <cc:Work
         rdf:about="">
        <dc:format>image/svg+xml</dc:format>
        <dc:type
           rdf:resource="http://purl.org/dc/dcmitype/StillImage" />
        <dc:title></dc:title>
      </cc:Work>
    </rdf:RDF>
  </metadata>
  <g
     transform="translate(0,-752.36218)"
     id="layer1"
     inkscape:groupmode="layer"
     inkscape:label="Layer 1" />
  <text
     sodipodi:linespacing="125%"
     id="text4327"
     y="36.451866"
     x="146.39311"
     style="font-style:normal;font-variant:normal;font-weight:bold;font-stretch:normal;font-size:32px;line-height:125%;font-family:'Amiri Quran';-inkscape-font-specification:'Sans Bold';text-align:center;letter-spacing:0px;word-spacing:0px;text-anchor:middle;fill:#000000;fill-opacity:1;stroke:none"
     xml:space="preserve"><tspan
       y="36.451866"
       x="146.39311"
       id="tspan4329"
       sodipodi:role="line">Numerical</tspan><tspan
       id="tspan6433"
       y="76.451866"
       x="146.39311"
       sodipodi:role="line">Quadrature</tspan></text>
  <path
     inkscape:connector-curvature="0"
     id="path4318"
     d="M 38.157723,289.76326 38.157723,125.03876"
     style="fill:none;stroke:#2f2f2f;stroke-width:1.99999988;stroke-linecap:round;stroke-miterlimit:4;stroke-opacity:1;stroke-dasharray:none;stroke-dashoffset:0" />
  <rect
     ry="29.285715"
     rx="29.285715"
     y="1"
     x="1"
     height="298"
     width="298"
     id="rect3121"
     style="fill:none;stroke:#2f2f2f;stroke-width:2;stroke-linecap:round;stroke-miterlimit:4;stroke-opacity:1;stroke-dasharray:none;stroke-dashoffset:0" />
  <path
     inkscape:connector-curvature="0"
     id="path11346"
     d="M 257.98581,218.08223 C 249.92311,213.61433 241.86043,200.75126 233.79775,189.7879 225.73506,178.82454 217.67235,171.16421 209.60966,175.3256 201.54698,179.48702 193.48429,195.79245 185.42161,217.15155 177.35893,238.51063 169.29623,263.7617 161.23353,277.88879 153.17085,292.01588 145.10814,293.86947 137.04547,279.34002 128.98278,264.81058 120.92007,234.10572 112.85738,200.55248 104.7947,166.99925 96.732013,131.88672 88.669319,113.02351 80.60663,94.160322 72.543931,92.623794 64.481253,112.26305 56.418565,131.90232 48.355866,172.58862 40.293177,218.08223"
     style="fill:#9c9c9c;fill-opacity:1;stroke:#001fc1;stroke-width:3;stroke-linecap:round;stroke-miterlimit:4;stroke-opacity:1;stroke-dasharray:none;stroke-dashoffset:0" />
  <g
     id="g11704"
     transform="matrix(2.0199698,0,0,-2.1207715,-763.87272,1122.4765)"
     xml:space="preserve"
     stroke-miterlimit="10.433"
     font-style="normal"
     font-variant="normal"
     font-weight="normal"
     font-stretch="normal"
     font-size-adjust="none"
     letter-spacing="normal"
     word-spacing="normal"
     ns0:text="\\begin{equation*}\nf(x)\n\\end{equation*}"
     ns0:preamble="/home/matt/Dropbox/Writing/texTextPreamble.ini"
     style="font-style:normal;font-variant:normal;font-weight:normal;font-stretch:normal;letter-spacing:normal;word-spacing:normal;text-anchor:start;fill:none;stroke:#000000;stroke-width:0.48314846;stroke-linecap:butt;stroke-linejoin:miter;stroke-miterlimit:10.43299961;stroke-opacity:1;stroke-dasharray:none;stroke-dashoffset:0"><path
       style="fill:#000000;stroke-width:0"
       inkscape:connector-curvature="0"
       d="M 389.24,481.21 H 390.1 C 390.3,481.21 390.4,481.21 390.4,481.41 390.4,481.52 390.3,481.52 390.13,481.52 H 389.3 L 389.51,482.65 C 389.55,482.86 389.69,483.56 389.75,483.68 389.84,483.87 390.01,484.02 390.22,484.02 390.26,484.02 390.52,484.02 390.7,483.84 390.27,483.8 390.17,483.45 390.17,483.3 390.17,483.08 390.35,482.96 390.54,482.96 390.79,482.96 391.08,483.17 391.08,483.55 391.08,484.01 390.62,484.24 390.22,484.24 389.88,484.24 389.25,484.06 388.95,483.08 388.89,482.87 388.86,482.77 388.62,481.52 H 387.94 C 387.75,481.52 387.64,481.52 387.64,481.33 387.64,481.21 387.73,481.21 387.92,481.21 H 388.58 L 387.83,477.29 C 387.65,476.32 387.48,475.42 386.96,475.42 386.92,475.42 386.67,475.42 386.49,475.6 386.94,475.63 387.03,475.98 387.03,476.13 387.03,476.36 386.86,476.48 386.67,476.48 386.41,476.48 386.12,476.26 386.12,475.88 386.12,475.44 386.56,475.2 386.96,475.2 387.51,475.2 387.91,475.79 388.09,476.16 388.41,476.79 388.64,477.99 388.64,478.06 z"
       id="path11706" /><path
       style="fill:#000000;stroke-width:0"
       inkscape:connector-curvature="0"
       d="M 394.83,474.85 394.83,474.86 394.83,474.86 394.83,474.86 394.83,474.87 394.83,474.87 394.83,474.87 394.83,474.88 394.83,474.88 394.83,474.88 394.83,474.89 394.82,474.89 394.82,474.9 394.82,474.9 394.81,474.91 394.81,474.91 394.8,474.92 394.8,474.93 394.79,474.93 394.79,474.94 394.79,474.94 394.78,474.95 394.78,474.95 394.78,474.95 394.77,474.96 394.77,474.96 394.76,474.97 394.76,474.97 394.75,474.98 394.75,474.98 394.74,474.99 394.74,474.99 394.73,475 394.73,475.01 394.72,475.01 394.71,475.02 394.71,475.03 394.7,475.03 394.69,475.04 394.69,475.05 394.68,475.05 394.67,475.06 394.67,475.07 C 393.42,476.32 393.1,478.2 393.1,479.72 393.1,481.45 393.48,483.17 394.7,484.42 394.83,484.54 394.83,484.56 394.83,484.59 394.83,484.66 394.79,484.68 394.73,484.68 394.64,484.68 393.74,484.01 393.15,482.75 392.64,481.66 392.53,480.55 392.53,479.72 392.53,478.94 392.64,477.74 393.18,476.62 393.78,475.4 394.64,474.75 394.73,474.75 394.79,474.75 394.83,474.78 394.83,474.85 z"
       id="path11708" /><path
       style="fill:#000000;stroke-width:0"
       inkscape:connector-curvature="0"
       d="M 398.74,480.23 398.75,480.26 398.75,480.29 398.76,480.32 398.77,480.36 398.78,480.4 398.79,480.44 398.81,480.48 398.82,480.53 398.84,480.57 398.85,480.62 398.87,480.67 398.89,480.72 398.92,480.77 398.94,480.82 398.97,480.87 398.99,480.92 399.02,480.97 399.05,481.01 399.09,481.06 399.12,481.1 399.16,481.15 399.2,481.19 399.24,481.23 399.28,481.26 399.33,481.29 399.38,481.32 399.41,481.33 399.43,481.35 399.46,481.36 399.48,481.37 399.51,481.38 399.54,481.38 399.57,481.39 399.6,481.4 399.63,481.4 399.66,481.4 399.69,481.41 399.72,481.41 C 399.77,481.41 400.01,481.41 400.22,481.28 399.94,481.23 399.74,480.98 399.74,480.74 399.74,480.58 399.85,480.39 400.12,480.39 400.34,480.39 400.66,480.57 400.66,480.97 400.66,481.49 400.07,481.63 399.73,481.63 399.16,481.63 398.81,481.1 398.69,480.87 398.44,481.53 397.9,481.63 397.61,481.63 396.58,481.63 396.01,480.34 396.01,480.1 396.01,480 396.11,480 396.13,480 396.21,480 396.24,480.02 396.26,480.11 396.6,481.16 397.26,481.41 397.6,481.41 397.78,481.41 398.13,481.32 398.13,480.74 398.13,480.43 397.96,479.77 397.6,478.38 397.44,477.76 397.09,477.34 396.65,477.34 396.59,477.34 396.36,477.34 396.15,477.47 396.4,477.52 396.62,477.73 396.62,478.01 396.62,478.28 396.4,478.36 396.25,478.36 395.95,478.36 395.7,478.1 395.7,477.78 395.7,477.32 396.2,477.13 396.64,477.13 397.3,477.13 397.65,477.82 397.68,477.88 397.8,477.51 398.16,477.13 398.76,477.13 399.78,477.13 400.35,478.41 400.35,478.66 400.35,478.76 400.26,478.76 400.23,478.76 400.14,478.76 400.12,478.71 400.1,478.65 399.77,477.58 399.1,477.34 398.78,477.34 398.39,477.34 398.23,477.66 398.23,478 398.23,478.22 398.29,478.44 398.4,478.87 z"
       id="path11710" /><path
       style="fill:#000000;stroke-width:0"
       inkscape:connector-curvature="0"
       d="M 403.98,479.72 403.98,479.79 403.98,479.87 403.98,479.95 403.98,480.03 403.97,480.2 403.96,480.37 403.94,480.55 403.92,480.74 403.89,480.94 403.86,481.14 403.82,481.34 403.78,481.55 403.72,481.76 403.66,481.97 403.59,482.18 403.51,482.39 403.47,482.5 403.43,482.61 403.38,482.71 403.33,482.82 C 402.73,484.04 401.88,484.68 401.78,484.68 401.72,484.68 401.68,484.65 401.68,484.59 401.68,484.56 401.68,484.54 401.87,484.36 402.84,483.37 403.41,481.8 403.41,479.72 403.41,478.02 403.04,476.27 401.81,475.02 401.68,474.9 401.68,474.88 401.68,474.85 401.68,474.79 401.72,474.75 401.78,474.75 401.88,474.75 402.77,475.43 403.36,476.69 403.87,477.78 403.98,478.88 403.98,479.72 z"
       id="path11712" /></g>  <g
     style="font-style:normal;font-variant:normal;font-weight:normal;font-stretch:normal;letter-spacing:normal;word-spacing:normal;text-anchor:start;fill:none;stroke:#000000;stroke-width:0.48314846;stroke-linecap:butt;stroke-linejoin:miter;stroke-miterlimit:10.43299961;stroke-opacity:1;stroke-dasharray:none;stroke-dashoffset:0"
     ns0:preamble="/home/matt/Dropbox/Writing/texTextPreamble.ini"
     ns0:text="\\begin{equation*}\nx\n\\end{equation*}"
     word-spacing="normal"
     letter-spacing="normal"
     font-size-adjust="none"
     font-stretch="normal"
     font-weight="normal"
     font-variant="normal"
     font-style="normal"
     stroke-miterlimit="10.433"
     xml:space="preserve"
     transform="matrix(2.0199698,0,0,-2.1207715,-516.96596,1236.0127)"
     id="g11798"><path
       id="path11800"
       d="M 395.76,480.23 395.77,480.26 395.78,480.29 395.79,480.32 395.8,480.36 395.81,480.4 395.82,480.44 395.83,480.48 395.85,480.53 395.86,480.57 395.88,480.62 395.9,480.67 395.92,480.72 395.94,480.77 395.96,480.82 395.99,480.87 396.02,480.92 396.05,480.97 396.08,481.01 396.11,481.06 396.15,481.1 396.18,481.15 396.22,481.19 396.27,481.23 396.31,481.26 396.36,481.29 396.4,481.32 396.43,481.33 396.46,481.35 396.48,481.36 396.51,481.37 396.54,481.38 396.57,481.38 396.59,481.39 396.62,481.4 396.65,481.4 396.69,481.4 396.72,481.41 396.75,481.41 C 396.8,481.41 397.04,481.41 397.25,481.28 396.97,481.23 396.77,480.98 396.77,480.74 396.77,480.58 396.88,480.39 397.15,480.39 397.37,480.39 397.68,480.57 397.68,480.97 397.68,481.49 397.1,481.63 396.76,481.63 396.18,481.63 395.83,481.1 395.71,480.87 395.47,481.53 394.93,481.63 394.64,481.63 393.61,481.63 393.04,480.34 393.04,480.1 393.04,480 393.14,480 393.16,480 393.24,480 393.27,480.02 393.29,480.11 393.62,481.16 394.28,481.41 394.62,481.41 394.81,481.41 395.16,481.32 395.16,480.74 395.16,480.43 394.99,479.77 394.62,478.38 394.46,477.76 394.11,477.34 393.67,477.34 393.61,477.34 393.39,477.34 393.18,477.47 393.43,477.52 393.64,477.73 393.64,478.01 393.64,478.28 393.43,478.36 393.28,478.36 392.98,478.36 392.73,478.1 392.73,477.78 392.73,477.32 393.23,477.13 393.67,477.13 394.32,477.13 394.68,477.82 394.71,477.88 394.83,477.51 395.19,477.13 395.78,477.13 396.81,477.13 397.38,478.41 397.38,478.66 397.38,478.76 397.29,478.76 397.26,478.76 397.17,478.76 397.15,478.71 397.13,478.65 396.8,477.58 396.12,477.34 395.8,477.34 395.42,477.34 395.26,477.66 395.26,478 395.26,478.22 395.32,478.44 395.43,478.87 z"
       inkscape:connector-curvature="0"
       style="fill:#000000;stroke-width:0" /></g>  <path
     inkscape:connector-curvature="0"
     id="path4320"
     d="M 10.612465,218.46698 266.37456,218.46698"
     style="fill:none;stroke:#2f2f2f;stroke-width:2;stroke-linecap:round;stroke-miterlimit:4;stroke-opacity:1;stroke-dasharray:none;stroke-dashoffset:0" />
  <g
     style="font-style:normal;font-variant:normal;font-weight:normal;font-stretch:normal;letter-spacing:normal;word-spacing:normal;text-anchor:start;fill:none;stroke:#000000;stroke-width:0.48314846;stroke-linecap:butt;stroke-linejoin:miter;stroke-miterlimit:10.43299961;stroke-opacity:1;stroke-dasharray:none;stroke-dashoffset:0"
     ns0:preamble="/home/matt/Dropbox/Writing/texTextPreamble.ini"
     ns0:text="\\begin{equation*}\n\\int_a^b \\! f(x) \\: dx\n\\end{equation*}"
     word-spacing="normal"
     letter-spacing="normal"
     font-size-adjust="none"
     font-stretch="normal"
     font-weight="normal"
     font-variant="normal"
     font-style="normal"
     stroke-miterlimit="10.433"
     xml:space="preserve"
     transform="matrix(2.0199698,0,0,-2.1207715,-593.96736,1132.2362)"
     id="content"><path
       id="path11918"
       d="M 373.1,463.19 373.13,463.19 373.16,463.2 373.18,463.2 373.21,463.21 373.24,463.22 373.26,463.22 373.29,463.23 373.31,463.24 373.33,463.25 373.35,463.26 373.37,463.28 373.39,463.29 373.41,463.3 373.43,463.32 373.44,463.33 373.46,463.35 373.48,463.37 373.49,463.38 373.5,463.4 373.51,463.42 373.53,463.44 373.54,463.46 373.55,463.48 373.55,463.5 373.56,463.52 373.57,463.54 373.57,463.57 373.58,463.59 373.58,463.61 373.58,463.63 373.58,463.66 373.58,463.68 C 373.58,464.01 373.34,464.17 373.11,464.17 372.87,464.17 372.62,464.02 372.62,463.67 372.62,463.16 373.12,462.74 373.72,462.74 375.24,462.74 375.8,465.07 376.51,467.95 377.28,471.09 377.92,474.26 378.46,477.45 378.83,479.56 379.2,481.55 379.54,482.83 379.65,483.32 379.99,484.6 380.38,484.6 380.69,484.6 380.94,484.41 380.98,484.37 380.65,484.35 380.48,484.13 380.48,483.88 380.48,483.56 380.73,483.4 380.96,483.4 381.2,483.4 381.45,483.55 381.45,483.89 381.45,484.43 380.91,484.82 380.36,484.82 379.6,484.82 379.05,483.73 378.5,481.71 378.47,481.6 377.12,476.61 376.02,470.12 375.76,468.6 375.48,466.94 375.15,465.56 374.97,464.83 374.51,462.96 373.7,462.96 373.35,462.96 373.11,463.19 373.1,463.19 z"
       inkscape:connector-curvature="0"
       style="fill:#000000;stroke-width:0" /><path
       id="path11920"
       d="M 383.86,486.97 383.86,486.97 383.86,486.97 383.87,486.97 383.87,486.98 383.87,486.98 383.87,486.98 383.87,486.98 383.87,486.98 383.87,486.98 383.87,486.99 383.87,486.99 383.87,486.99 383.87,487 383.87,487 383.87,487.01 383.88,487.01 383.88,487.02 383.88,487.02 383.88,487.03 383.88,487.04 383.88,487.04 383.88,487.04 383.88,487.05 383.89,487.05 383.89,487.06 383.89,487.06 383.89,487.07 383.89,487.07 383.89,487.07 383.89,487.07 383.89,487.07 383.89,487.08 383.89,487.08 383.89,487.08 383.89,487.08 383.89,487.08 383.89,487.08 383.89,487.08 383.89,487.08 383.89,487.08 383.89,487.08 C 383.89,487.12 383.86,487.18 383.78,487.18 383.64,487.18 383.06,487.12 382.89,487.11 382.83,487.1 382.73,487.1 382.73,486.95 382.73,486.85 382.83,486.85 382.92,486.85 383.25,486.85 383.25,486.8 383.25,486.75 383.25,486.7 383.18,486.42 383.14,486.26 L 382.98,485.62 C 382.92,485.39 382.53,483.86 382.52,483.77 382.48,483.61 382.48,483.52 382.48,483.43 382.48,482.73 382.93,482.29 383.51,482.29 L 383.52,482.48 C 383.17,482.48 382.98,482.78 382.98,483.19 382.98,483.45 383.04,483.68 383.24,484.47 383.28,484.6 383.28,484.61 383.41,484.77 383.68,485.07 383.99,485.23 384.24,485.23 384.51,485.23 384.75,485.02 384.75,484.55 384.75,484.27 384.6,483.56 384.39,483.15 384.22,482.81 383.87,482.48 383.52,482.48 H 383.52 L 383.51,482.29 C 384.38,482.29 385.3,483.23 385.3,484.26 385.3,485.07 384.74,485.42 384.26,485.42 383.9,485.42 383.59,485.22 383.38,485.04 z"
       inkscape:connector-curvature="0"
       style="fill:#000000;stroke-width:0" /><path
       id="path11922"
       d="M 380.54,464.84 380.52,464.86 380.51,464.88 380.49,464.9 380.48,464.92 380.46,464.94 380.44,464.96 380.43,464.98 380.41,465 380.39,465.02 380.37,465.03 380.35,465.05 380.33,465.07 380.31,465.08 380.29,465.1 380.27,465.11 380.25,465.13 380.23,465.14 380.2,465.15 380.18,465.17 380.15,465.18 380.13,465.19 380.1,465.2 380.08,465.21 380.05,465.22 380.02,465.22 380,465.23 379.97,465.23 379.94,465.24 379.91,465.24 379.88,465.24 379.85,465.25 379.82,465.25 V 465.05 C 380.31,465.05 380.44,464.52 380.44,464.45 380.44,464.42 380.42,464.37 380.42,464.35 L 380.09,463.05 C 380.04,462.86 379.89,462.71 379.73,462.58 379.67,462.53 379.39,462.3 379.09,462.3 378.84,462.3 378.59,462.49 378.59,462.98 378.59,463.35 378.79,464.11 378.95,464.39 379.27,464.95 379.62,465.05 379.82,465.05 V 465.25 C 378.93,465.25 378.02,464.27 378.02,463.27 378.02,462.59 378.47,462.11 379.07,462.11 379.45,462.11 379.78,462.33 380.06,462.6 380.2,462.18 380.6,462.11 380.78,462.11 381.03,462.11 381.2,462.26 381.33,462.48 381.48,462.75 381.57,463.15 381.57,463.17 381.57,463.27 381.48,463.27 381.46,463.27 381.36,463.27 381.36,463.24 381.31,463.05 381.23,462.71 381.09,462.3 380.8,462.3 380.62,462.3 380.57,462.46 380.57,462.65 380.57,462.76 380.63,463.01 380.67,463.2 380.72,463.38 380.79,463.67 380.83,463.82 L 380.97,464.35 C 381.01,464.53 381.09,464.86 381.09,464.89 381.09,465.05 380.97,465.11 380.86,465.11 380.74,465.11 380.58,465.03 380.54,464.84 z"
       inkscape:connector-curvature="0"
       style="fill:#000000;stroke-width:0" /><path
       id="path11924"
       d="M 389.68,475.23 H 390.53 C 390.73,475.23 390.83,475.23 390.83,475.43 390.83,475.54 390.73,475.54 390.56,475.54 H 389.74 L 389.95,476.67 C 389.99,476.88 390.13,477.59 390.19,477.7 390.27,477.89 390.44,478.04 390.65,478.04 390.69,478.04 390.95,478.04 391.14,477.86 390.7,477.82 390.6,477.48 390.6,477.33 390.6,477.1 390.78,476.98 390.97,476.98 391.23,476.98 391.52,477.2 391.52,477.58 391.52,478.03 391.06,478.26 390.65,478.26 390.32,478.26 389.69,478.08 389.39,477.1 389.33,476.89 389.3,476.79 389.06,475.54 H 388.38 C 388.19,475.54 388.08,475.54 388.08,475.35 388.08,475.23 388.17,475.23 388.36,475.23 H 389.01 L 388.27,471.31 C 388.09,470.34 387.92,469.44 387.4,469.44 387.36,469.44 387.11,469.44 386.92,469.62 387.38,469.65 387.47,470.01 387.47,470.15 387.47,470.38 387.29,470.5 387.1,470.5 386.84,470.5 386.55,470.29 386.55,469.91 386.55,469.46 386.99,469.22 387.4,469.22 387.95,469.22 388.35,469.81 388.52,470.18 388.84,470.81 389.07,472.01 389.08,472.08 z"
       inkscape:connector-curvature="0"
       style="fill:#000000;stroke-width:0" /><path
       id="path11926"
       d="M 395.27,468.87 395.27,468.88 395.27,468.89 395.27,468.89 395.27,468.89 395.27,468.89 395.27,468.9 395.27,468.9 395.26,468.9 395.26,468.91 395.26,468.91 395.26,468.92 395.26,468.92 395.25,468.93 395.25,468.93 395.24,468.94 395.24,468.94 395.23,468.95 395.23,468.96 395.23,468.96 395.22,468.96 395.22,468.97 395.22,468.97 395.21,468.98 395.21,468.98 395.2,468.99 395.2,468.99 395.19,469 395.19,469 395.18,469.01 395.18,469.01 395.17,469.02 395.17,469.02 395.16,469.03 395.16,469.04 395.15,469.04 395.14,469.05 395.14,469.06 395.13,469.06 395.12,469.07 395.12,469.08 395.11,469.08 395.1,469.09 C 393.86,470.34 393.54,472.22 393.54,473.74 393.54,475.47 393.92,477.2 395.14,478.44 395.27,478.56 395.27,478.58 395.27,478.61 395.27,478.68 395.23,478.71 395.17,478.71 395.07,478.71 394.18,478.03 393.59,476.77 393.08,475.68 392.96,474.58 392.96,473.74 392.96,472.97 393.07,471.77 393.62,470.64 394.22,469.42 395.07,468.77 395.17,468.77 395.23,468.77 395.27,468.8 395.27,468.87 z"
       inkscape:connector-curvature="0"
       style="fill:#000000;stroke-width:0" /><path
       id="path11928"
       d="M 399.17,474.26 399.18,474.28 399.19,474.31 399.2,474.35 399.21,474.38 399.22,474.42 399.23,474.46 399.24,474.51 399.26,474.55 399.27,474.6 399.29,474.64 399.31,474.69 399.33,474.74 399.35,474.79 399.37,474.84 399.4,474.89 399.43,474.94 399.46,474.99 399.49,475.04 399.52,475.08 399.56,475.13 399.59,475.17 399.63,475.21 399.68,475.25 399.72,475.28 399.77,475.32 399.81,475.34 399.84,475.36 399.87,475.37 399.89,475.38 399.92,475.39 399.95,475.4 399.98,475.41 400,475.41 400.03,475.42 400.06,475.42 400.1,475.43 400.13,475.43 400.16,475.43 C 400.21,475.43 400.45,475.43 400.66,475.3 400.38,475.25 400.18,475 400.18,474.77 400.18,474.61 400.29,474.42 400.56,474.42 400.78,474.42 401.09,474.6 401.09,474.99 401.09,475.51 400.51,475.65 400.17,475.65 399.59,475.65 399.24,475.12 399.12,474.89 398.88,475.55 398.34,475.65 398.05,475.65 397.02,475.65 396.45,474.37 396.45,474.12 396.45,474.02 396.55,474.02 396.57,474.02 396.65,474.02 396.68,474.04 396.7,474.13 397.04,475.18 397.69,475.43 398.03,475.43 398.22,475.43 398.57,475.34 398.57,474.77 398.57,474.46 398.4,473.79 398.03,472.4 397.87,471.79 397.52,471.37 397.08,471.37 397.02,471.37 396.8,471.37 396.59,471.5 396.84,471.55 397.05,471.76 397.05,472.03 397.05,472.3 396.84,472.38 396.69,472.38 396.39,472.38 396.14,472.12 396.14,471.8 396.14,471.35 396.64,471.15 397.08,471.15 397.73,471.15 398.09,471.84 398.12,471.9 398.24,471.54 398.6,471.15 399.19,471.15 400.22,471.15 400.79,472.43 400.79,472.68 400.79,472.78 400.7,472.78 400.67,472.78 400.58,472.78 400.56,472.74 400.54,472.67 400.21,471.61 399.53,471.37 399.21,471.37 398.83,471.37 398.67,471.68 398.67,472.02 398.67,472.24 398.73,472.46 398.84,472.9 z"
       inkscape:connector-curvature="0"
       style="fill:#000000;stroke-width:0" /><path
       id="path11930"
       d="M 404.42,473.74 404.42,473.81 404.42,473.89 404.42,473.97 404.41,474.05 404.41,474.22 404.39,474.39 404.38,474.58 404.36,474.77 404.33,474.96 404.3,475.16 404.26,475.36 404.21,475.57 404.16,475.78 404.1,475.99 404.03,476.2 403.95,476.42 403.91,476.52 403.86,476.63 403.81,476.74 403.76,476.84 C 403.17,478.06 402.31,478.71 402.21,478.71 402.15,478.71 402.11,478.67 402.11,478.61 402.11,478.58 402.11,478.56 402.3,478.38 403.28,477.4 403.84,475.82 403.84,473.74 403.84,472.04 403.48,470.29 402.24,469.04 402.11,468.92 402.11,468.9 402.11,468.87 402.11,468.81 402.15,468.77 402.21,468.77 402.31,468.77 403.21,469.45 403.79,470.71 404.3,471.8 404.42,472.91 404.42,473.74 z"
       inkscape:connector-curvature="0"
       style="fill:#000000;stroke-width:0" /><path
       id="path11932"
       d="M 412.77,478.04 412.77,478.04 412.77,478.04 412.77,478.05 412.77,478.05 412.77,478.05 412.77,478.05 412.77,478.06 412.77,478.06 412.76,478.06 412.76,478.07 412.76,478.07 412.76,478.08 412.76,478.08 412.76,478.09 412.76,478.09 412.75,478.1 412.75,478.1 412.75,478.11 412.74,478.11 412.74,478.12 412.74,478.12 412.73,478.12 412.73,478.12 412.73,478.13 412.72,478.13 412.72,478.13 412.72,478.13 412.72,478.13 412.71,478.14 412.71,478.14 412.71,478.14 412.7,478.14 412.7,478.14 412.69,478.14 412.69,478.15 412.68,478.15 412.68,478.15 412.68,478.15 412.67,478.15 412.67,478.15 412.66,478.15 412.65,478.15 412.65,478.15 412.64,478.15 412.64,478.15 C 412.49,478.15 411.54,478.06 411.37,478.04 411.29,478.03 411.23,477.98 411.23,477.85 411.23,477.73 411.32,477.73 411.47,477.73 411.95,477.73 411.97,477.67 411.97,477.57 L 411.94,477.37 411.34,475.01 C 411.17,475.38 410.88,475.65 410.43,475.65 409.27,475.65 408.03,474.19 408.03,472.74 408.03,471.8 408.58,471.15 409.35,471.15 L 409.37,471.37 C 408.88,471.37 408.74,471.91 408.74,472.3 408.74,472.8 409.06,474.02 409.29,474.48 409.59,475.06 410.04,475.43 410.44,475.43 411.08,475.43 411.23,474.62 411.23,474.56 411.23,474.5 411.2,474.44 411.2,474.39 L 410.7,472.44 C 410.65,472.26 410.65,472.24 410.5,472.07 410.06,471.53 409.65,471.37 409.37,471.37 L 409.35,471.15 C 409.55,471.15 410.05,471.19 410.65,471.89 410.73,471.48 411.08,471.15 411.55,471.15 411.9,471.15 412.13,471.38 412.29,471.7 412.46,472.05 412.59,472.66 412.59,472.68 412.59,472.78 412.5,472.78 412.47,472.78 412.37,472.78 412.36,472.74 412.33,472.6 412.16,471.95 411.98,471.37 411.57,471.37 411.3,471.37 411.27,471.62 411.27,471.82 411.27,472.06 411.29,472.13 411.33,472.3 z"
       inkscape:connector-curvature="0"
       style="fill:#000000;stroke-width:0" /><path
       id="path11934"
       d="M 416.14,474.26 416.15,474.28 416.16,474.31 416.16,474.35 416.17,474.38 416.18,474.42 416.2,474.46 416.21,474.51 416.22,474.55 416.24,474.6 416.26,474.64 416.28,474.69 416.3,474.74 416.32,474.79 416.34,474.84 416.37,474.89 416.4,474.94 416.42,474.99 416.46,475.04 416.49,475.08 416.52,475.13 416.56,475.17 416.6,475.21 416.64,475.25 416.69,475.28 416.73,475.32 416.78,475.34 416.81,475.36 416.83,475.37 416.86,475.38 416.89,475.39 416.91,475.4 416.94,475.41 416.97,475.41 417,475.42 417.03,475.42 417.06,475.43 417.09,475.43 417.13,475.43 C 417.18,475.43 417.42,475.43 417.62,475.3 417.35,475.25 417.15,475 417.15,474.77 417.15,474.61 417.26,474.42 417.52,474.42 417.74,474.42 418.06,474.6 418.06,474.99 418.06,475.51 417.48,475.65 417.14,475.65 416.56,475.65 416.21,475.12 416.09,474.89 415.84,475.55 415.31,475.65 415.02,475.65 413.98,475.65 413.42,474.37 413.42,474.12 413.42,474.02 413.52,474.02 413.54,474.02 413.61,474.02 413.64,474.04 413.66,474.13 414,475.18 414.66,475.43 415,475.43 415.19,475.43 415.54,475.34 415.54,474.77 415.54,474.46 415.36,473.79 415,472.4 414.84,471.79 414.49,471.37 414.05,471.37 413.99,471.37 413.76,471.37 413.55,471.5 413.8,471.55 414.02,471.76 414.02,472.03 414.02,472.3 413.8,472.38 413.65,472.38 413.36,472.38 413.11,472.12 413.11,471.8 413.11,471.35 413.6,471.15 414.04,471.15 414.7,471.15 415.06,471.84 415.09,471.9 415.21,471.54 415.56,471.15 416.16,471.15 417.19,471.15 417.75,472.43 417.75,472.68 417.75,472.78 417.66,472.78 417.63,472.78 417.54,472.78 417.52,472.74 417.51,472.67 417.18,471.61 416.5,471.37 416.18,471.37 415.79,471.37 415.63,471.68 415.63,472.02 415.63,472.24 415.69,472.46 415.8,472.9 z"
       inkscape:connector-curvature="0"
       style="fill:#000000;stroke-width:0" /></g>  <path
     sodipodi:nodetypes="cc"
     style="fill:none;stroke:#2f2f2f;stroke-width:1px;stroke-linecap:butt;stroke-linejoin:miter;stroke-opacity:1;marker-end:url(#Arrow1Mend4)"
     d="M 157.75577,124.42244 C 115.00443,124.42244 104.87029,137.00295 78.217824,172.27722"
     id="path11968"
     inkscape:connector-curvature="0" />
</svg>
