<?xml version="1.0" encoding="UTF-8" standalone="no"?>
<!-- Created with Inkscape (http://www.inkscape.org/) -->

<svg
   xmlns:ns0="http://www.iki.fi/pav/software/textext/"
   xmlns:dc="http://purl.org/dc/elements/1.1/"
   xmlns:cc="http://creativecommons.org/ns#"
   xmlns:rdf="http://www.w3.org/1999/02/22-rdf-syntax-ns#"
   xmlns:svg="http://www.w3.org/2000/svg"
   xmlns="http://www.w3.org/2000/svg"
   xmlns:sodipodi="http://sodipodi.sourceforge.net/DTD/sodipodi-0.dtd"
   xmlns:inkscape="http://www.inkscape.org/namespaces/inkscape"
   width="300"
   height="300"
   id="svg2"
   version="1.1"
   inkscape:version="0.48.4 r9939"
   sodipodi:docname="simplePendulum.svg">
  <sodipodi:namedview
     id="base"
     pagecolor="#ffffff"
     bordercolor="#666666"
     borderopacity="1.0"
     inkscape:pageopacity="0.0"
     inkscape:pageshadow="2"
     inkscape:zoom="2.1425335"
     inkscape:cx="282.92748"
     inkscape:cy="148.95523"
     inkscape:document-units="px"
     inkscape:current-layer="svg2"
     showgrid="false"
     inkscape:window-width="1855"
     inkscape:window-height="1056"
     inkscape:window-x="65"
     inkscape:window-y="24"
     inkscape:window-maximized="1" />
  <defs
     id="defs4">
    <marker
       style="overflow:visible"
       id="Arrow2MendZ"
       refX="0"
       refY="0"
       orient="auto"
       inkscape:stockid="Arrow2MendZ">
      <path
         transform="scale(-0.6,-0.6)"
         d="M 8.7185878,4.0337352 -2.2072895,0.01601326 8.7185884,-4.0017078 C 6.97309,-1.6296469 6.9831476,1.6157441 8.7185878,4.0337352 z"
         style="fill:#f8f8f2;fill-rule:evenodd;stroke:#f8f8f2;stroke-width:0.625;stroke-linejoin:round"
         id="path18396"
         inkscape:connector-curvature="0" />
    </marker>
    <marker
       style="overflow:visible"
       id="Arrow2MstartJ"
       refX="0"
       refY="0"
       orient="auto"
       inkscape:stockid="Arrow2MstartJ">
      <path
         transform="scale(0.6,0.6)"
         d="M 8.7185878,4.0337352 -2.2072895,0.01601326 8.7185884,-4.0017078 C 6.97309,-1.6296469 6.9831476,1.6157441 8.7185878,4.0337352 z"
         style="fill:#f8f8f2;fill-rule:evenodd;stroke:#f8f8f2;stroke-width:0.625;stroke-linejoin:round"
         id="path17492"
         inkscape:connector-curvature="0" />
    </marker>
    <marker
       style="overflow:visible"
       id="Arrow2Mend8"
       refX="0"
       refY="0"
       orient="auto"
       inkscape:stockid="Arrow2Mend8">
      <path
         transform="scale(-0.6,-0.6)"
         d="M 8.7185878,4.0337352 -2.2072895,0.01601326 8.7185884,-4.0017078 C 6.97309,-1.6296469 6.9831476,1.6157441 8.7185878,4.0337352 z"
         style="fill:#f8f8f2;fill-rule:evenodd;stroke:#f8f8f2;stroke-width:0.625;stroke-linejoin:round"
         id="path17495"
         inkscape:connector-curvature="0" />
    </marker>
    <marker
       style="overflow:visible"
       id="marker5579"
       refX="0"
       refY="0"
       orient="auto"
       inkscape:stockid="Arrow2MstartJ">
      <path
         transform="scale(0.6,0.6)"
         d="M 8.7185878,4.0337352 -2.2072895,0.01601326 8.7185884,-4.0017078 C 6.97309,-1.6296469 6.9831476,1.6157441 8.7185878,4.0337352 z"
         style="fill:#f8f8f2;fill-rule:evenodd;stroke:#f8f8f2;stroke-width:0.625;stroke-linejoin:round"
         id="path5581"
         inkscape:connector-curvature="0" />
    </marker>
    <marker
       style="overflow:visible"
       id="marker5583"
       refX="0"
       refY="0"
       orient="auto"
       inkscape:stockid="Arrow2Mend8">
      <path
         transform="scale(-0.6,-0.6)"
         d="M 8.7185878,4.0337352 -2.2072895,0.01601326 8.7185884,-4.0017078 C 6.97309,-1.6296469 6.9831476,1.6157441 8.7185878,4.0337352 z"
         style="fill:#f8f8f2;fill-rule:evenodd;stroke:#f8f8f2;stroke-width:0.625;stroke-linejoin:round"
         id="path5585"
         inkscape:connector-curvature="0" />
    </marker>
    <marker
       style="overflow:visible"
       id="Arrow2Mendxc"
       refX="0"
       refY="0"
       orient="auto"
       inkscape:stockid="Arrow2Mendxc">
      <path
         transform="scale(-0.6,-0.6)"
         d="M 8.7185878,4.0337352 -2.2072895,0.01601326 8.7185884,-4.0017078 C 6.97309,-1.6296469 6.9831476,1.6157441 8.7185878,4.0337352 z"
         style="fill:#f8f8f2;fill-rule:evenodd;stroke:#f8f8f2;stroke-width:0.625;stroke-linejoin:round"
         id="path16000"
         inkscape:connector-curvature="0" />
    </marker>
    <marker
       style="overflow:visible"
       id="Arrow2MendZX"
       refX="0"
       refY="0"
       orient="auto"
       inkscape:stockid="Arrow2MendZX">
      <path
         transform="scale(-0.6,-0.6)"
         d="M 8.7185878,4.0337352 -2.2072895,0.01601326 8.7185884,-4.0017078 C 6.97309,-1.6296469 6.9831476,1.6157441 8.7185878,4.0337352 z"
         style="stroke-width:0.625;stroke-linejoin:round;stroke:#2f2f2f;fill-rule:evenodd;fill:#2f2f2f"
         id="path5802"
         inkscape:connector-curvature="0" />
    </marker>
  </defs>
  <metadata
     id="metadata7">
    <rdf:RDF>
      <cc:Work
         rdf:about="">
        <dc:format>image/svg+xml</dc:format>
        <dc:type
           rdf:resource="http://purl.org/dc/dcmitype/StillImage" />
        <dc:title />
      </cc:Work>
    </rdf:RDF>
  </metadata>
  <g
     inkscape:label="Layer 1"
     inkscape:groupmode="layer"
     id="layer1"
     transform="translate(0,-752.36218)" />
  <g
     id="g6036"
     transform="translate(-3.2671593,20.069697)">
    <path
       id="path2985-3"
       d="M 75.511685,175.23202 220.83187,175.23202"
       stroke-miterlimit="4"
       inkscape:connector-curvature="0"
       style="fill:none;stroke:#2f2f2f;stroke-width:4.17940569;stroke-linecap:round;stroke-linejoin:miter;stroke-miterlimit:4;stroke-opacity:1;stroke-dasharray:none" />
    <path
       id="path3755-5-8"
       d="M 210.16054,176.16566 203.55094,164.03367"
       stroke-miterlimit="4"
       inkscape:connector-curvature="0"
       style="fill:none;stroke:#2f2f2f;stroke-width:1.47322631;stroke-linecap:round;stroke-linejoin:miter;stroke-miterlimit:4;stroke-opacity:1;stroke-dasharray:none" />
    <path
       id="path3755-4-2"
       d="M 168.32693,176.16566 161.71734,164.03367"
       stroke-miterlimit="4"
       inkscape:connector-curvature="0"
       style="fill:none;stroke:#2f2f2f;stroke-width:1.47322631;stroke-linecap:round;stroke-linejoin:miter;stroke-miterlimit:4;stroke-opacity:1;stroke-dasharray:none" />
    <path
       id="path3755-46-1"
       d="M 199.70214,176.16566 193.09254,164.03367"
       stroke-miterlimit="4"
       inkscape:connector-curvature="0"
       style="fill:none;stroke:#2f2f2f;stroke-width:1.47322631;stroke-linecap:round;stroke-linejoin:miter;stroke-miterlimit:4;stroke-opacity:1;stroke-dasharray:none" />
    <path
       id="path3755-3-7-6"
       d="M 178.78533,176.16566 172.17574,164.03367"
       stroke-miterlimit="4"
       inkscape:connector-curvature="0"
       style="fill:none;stroke:#2f2f2f;stroke-width:1.47322631;stroke-linecap:round;stroke-linejoin:miter;stroke-miterlimit:4;stroke-opacity:1;stroke-dasharray:none" />
    <path
       id="path3755-0-3-2"
       d="M 147.41013,176.16566 140.80053,164.03367"
       stroke-miterlimit="4"
       inkscape:connector-curvature="0"
       style="fill:none;stroke:#2f2f2f;stroke-width:1.47322631;stroke-linecap:round;stroke-linejoin:miter;stroke-miterlimit:4;stroke-opacity:1;stroke-dasharray:none" />
    <path
       id="path3755-5-9-6"
       d="M 116.03083,176.16566 109.42123,164.03367"
       stroke-miterlimit="4"
       inkscape:connector-curvature="0"
       style="fill:none;stroke:#2f2f2f;stroke-width:1.47322631;stroke-linecap:round;stroke-linejoin:miter;stroke-miterlimit:4;stroke-opacity:1;stroke-dasharray:none" />
    <path
       id="path3755-4-7-0"
       d="M 84.655621,176.16566 78.046023,164.03367"
       stroke-miterlimit="4"
       inkscape:connector-curvature="0"
       style="fill:none;stroke:#2f2f2f;stroke-width:1.47322631;stroke-linecap:round;stroke-linejoin:miter;stroke-miterlimit:4;stroke-opacity:1;stroke-dasharray:none" />
    <path
       id="path3755-1-3"
       d="M 189.24374,176.16566 182.63414,164.03367"
       stroke-miterlimit="4"
       inkscape:connector-curvature="0"
       style="fill:none;stroke:#2f2f2f;stroke-width:1.47322631;stroke-linecap:round;stroke-linejoin:miter;stroke-miterlimit:4;stroke-opacity:1;stroke-dasharray:none" />
    <path
       id="path3755-3-2-8"
       d="M 157.86853,176.16566 151.25893,164.03367"
       stroke-miterlimit="4"
       inkscape:connector-curvature="0"
       style="fill:none;stroke:#2f2f2f;stroke-width:1.47322631;stroke-linecap:round;stroke-linejoin:miter;stroke-miterlimit:4;stroke-opacity:1;stroke-dasharray:none" />
    <path
       id="path3755-0-36-3"
       d="M 126.48923,176.16566 119.87963,164.03367"
       stroke-miterlimit="4"
       inkscape:connector-curvature="0"
       style="fill:none;stroke:#2f2f2f;stroke-width:1.47322631;stroke-linecap:round;stroke-linejoin:miter;stroke-miterlimit:4;stroke-opacity:1;stroke-dasharray:none" />
    <path
       id="path3755-5-90-3"
       d="M 95.114024,176.16566 88.504426,164.03367"
       stroke-miterlimit="4"
       inkscape:connector-curvature="0"
       style="fill:none;stroke:#2f2f2f;stroke-width:1.47322631;stroke-linecap:round;stroke-linejoin:miter;stroke-miterlimit:4;stroke-opacity:1;stroke-dasharray:none" />
    <path
       id="path3755-2-7"
       d="M 136.95173,176.16566 130.34213,164.03367"
       stroke-miterlimit="4"
       inkscape:connector-curvature="0"
       style="fill:none;stroke:#2f2f2f;stroke-width:1.47322631;stroke-linecap:round;stroke-linejoin:miter;stroke-miterlimit:4;stroke-opacity:1;stroke-dasharray:none" />
    <path
       id="path3755-3-74-2"
       d="M 105.57242,176.16566 98.962828,164.03367"
       stroke-miterlimit="4"
       inkscape:connector-curvature="0"
       style="fill:none;stroke:#2f2f2f;stroke-width:1.47322631;stroke-linecap:round;stroke-linejoin:miter;stroke-miterlimit:4;stroke-opacity:1;stroke-dasharray:none" />
    <path
       id="path3755-4-0-5"
       d="M 220.62304,176.16566 214.01344,164.03367"
       stroke-miterlimit="4"
       inkscape:connector-curvature="0"
       style="fill:none;stroke:#2f2f2f;stroke-width:1.47322631;stroke-linecap:round;stroke-linejoin:miter;stroke-miterlimit:4;stroke-opacity:1;stroke-dasharray:none" />
  </g>
  <g
     id="g6031"
     transform="matrix(0.83646905,-0.54801417,0.54801417,0.83646905,-69.657005,126.75846)">
    <path
       id="path4486"
       d="M 177.45892,282.58113 140.67883,174.66248"
       stroke-miterlimit="4"
       inkscape:connector-curvature="0"
       style="fill:none;stroke:#001fc1;stroke-width:2.96040654;stroke-linecap:butt;stroke-linejoin:miter;stroke-miterlimit:4;stroke-dasharray:none" />
    <path
       id="path3904-7-9-5"
       d="M 185.16289,285.47601 C 185.16289,289.72101 181.72142,293.16249 177.47641,293.16249 173.23141,293.16249 169.78993,289.72101 169.78993,285.47601 169.78993,281.231 173.23141,277.78952 177.47641,277.78952 181.72142,277.78952 185.16289,281.231 185.16289,285.47601 z"
       inkscape:connector-curvature="0"
       style="fill:#001fc1;fill-opacity:1" />
    <path
       id="path3904-7-9-5-7"
       d="M 148.00345,175.75274 C 148.00345,179.42663 145.02498,182.4051 141.35109,182.4051 137.6772,182.4051 134.69874,179.42663 134.69874,175.75274 134.69874,172.07885 137.6772,169.10039 141.35109,169.10039 145.02498,169.10039 148.00345,172.07885 148.00345,175.75274 z"
       inkscape:connector-curvature="0"
       style="fill:#2f2f2f;fill-opacity:1;stroke:none" />
  </g>
  <text
     xml:space="preserve"
     style="font-size:32px;font-style:normal;font-variant:normal;font-weight:bold;font-stretch:normal;line-height:125%;letter-spacing:0px;word-spacing:0px;fill:#000000;fill-opacity:1;stroke:none;font-family:Amiri Quran;-inkscape-font-specification:Sans Bold"
     x="148.57895"
     y="35.051655"
     id="text4327"
     sodipodi:linespacing="125%"><tspan
       sodipodi:role="line"
       id="tspan4329"
       x="148.57895"
       y="35.051655"
       style="text-align:center;text-anchor:middle">Simple</tspan><tspan
       sodipodi:role="line"
       x="148.57895"
       y="75.051659"
       id="tspan3910"
       style="text-align:center;text-anchor:middle">Pendulum</tspan></text>
  <rect
     style="fill:none;stroke:#2f2f2f;stroke-width:2;stroke-linecap:round;stroke-miterlimit:4;stroke-opacity:1;stroke-dasharray:none;stroke-dashoffset:0"
     id="rect3121"
     width="298"
     height="298"
     x="1"
     y="1"
     rx="29.285715"
     ry="29.285715" />
  <g
     id="content"
     transform="matrix(2.0199698,0,0,-2.1207715,-651.32343,1147.7713)"
     xml:space="preserve"
     stroke-miterlimit="10.433"
     font-style="normal"
     font-variant="normal"
     font-weight="normal"
     font-stretch="normal"
     font-size-adjust="none"
     letter-spacing="normal"
     word-spacing="normal"
     ns0:text="\\begin{equation*}\n \\ddot{\\theta} = -\\frac{g}{l} \\sin (\\theta) - \\frac{c}{m l^2} \\dot{\\theta} \n\\end{equation*}"
     ns0:preamble="/home/matt/Dropbox/Writing/texTextPreamble.ini"
     style="font-style:normal;font-variant:normal;font-weight:normal;font-stretch:normal;letter-spacing:normal;word-spacing:normal;text-anchor:start;fill:none;stroke:#000000;stroke-width:0.48314846;stroke-linecap:butt;stroke-linejoin:miter;stroke-miterlimit:10.43299961;stroke-opacity:1;stroke-dasharray:none;stroke-dashoffset:0"><path
       style="fill:#000000;stroke-width:0"
       inkscape:connector-curvature="0"
       d="M 350.13,484.95 350.13,484.97 350.13,484.99 350.12,485.01 350.12,485.04 350.12,485.06 350.11,485.08 350.1,485.1 350.09,485.13 350.08,485.15 350.07,485.17 350.06,485.19 350.05,485.21 350.04,485.23 350.02,485.25 350.01,485.27 349.99,485.28 349.98,485.3 349.96,485.32 349.94,485.33 349.92,485.35 349.9,485.36 349.88,485.38 349.86,485.39 349.84,485.4 349.81,485.41 349.79,485.42 349.76,485.43 349.74,485.43 349.71,485.44 349.69,485.44 349.66,485.44 349.63,485.44 C 349.35,485.44 349.14,485.23 349.14,484.95 349.14,484.67 349.35,484.45 349.63,484.45 349.93,484.45 350.13,484.71 350.13,484.95 z"
       id="path4131" /><path
       style="fill:#000000;stroke-width:0"
       inkscape:connector-curvature="0"
       d="M 352.05,484.95 352.05,484.97 352.05,485 352.04,485.02 352.04,485.05 352.03,485.07 352.03,485.1 352.02,485.12 352.01,485.14 352,485.16 351.99,485.19 351.98,485.21 351.97,485.23 351.95,485.25 351.94,485.26 351.92,485.28 351.91,485.3 351.89,485.32 351.87,485.33 351.85,485.35 351.83,485.36 351.81,485.37 351.79,485.38 351.77,485.4 351.75,485.41 351.72,485.41 351.7,485.42 351.68,485.43 351.65,485.43 351.63,485.44 351.6,485.44 351.58,485.44 351.55,485.44 C 351.25,485.44 351.05,485.18 351.05,484.95 351.05,484.71 351.25,484.45 351.55,484.45 351.83,484.45 352.05,484.67 352.05,484.95 z"
       id="path4133" /><path
       style="fill:#000000;stroke-width:0"
       inkscape:connector-curvature="0"
       d="M 351.82,481.14 351.82,481.2 351.82,481.27 351.82,481.34 351.81,481.41 351.81,481.49 351.8,481.57 351.79,481.65 351.78,481.73 351.76,481.81 351.75,481.9 351.73,481.98 351.71,482.07 351.69,482.15 351.66,482.24 351.64,482.32 351.6,482.4 351.57,482.48 351.53,482.56 351.49,482.63 351.45,482.7 351.4,482.77 351.35,482.83 351.3,482.89 351.24,482.95 351.18,483 351.15,483.02 351.11,483.04 351.08,483.06 351.04,483.08 351.01,483.1 350.97,483.11 350.93,483.13 350.89,483.14 350.85,483.15 350.81,483.16 350.76,483.16 350.72,483.17 350.67,483.17 350.63,483.17 350.62,482.95 C 351.11,482.95 351.16,482.32 351.16,481.75 351.16,481.27 351.08,480.76 350.85,479.77 H 348.77 C 348.94,480.41 349.14,481.21 349.53,481.91 349.8,482.4 350.17,482.95 350.62,482.95 L 350.63,483.17 C 349.24,483.17 347.71,480.37 347.71,478.1 347.71,477.16 348,476.06 348.91,476.06 V 476.28 C 348.58,476.28 348.37,476.57 348.37,477.49 348.37,477.91 348.43,478.48 348.69,479.46 H 350.76 C 350.65,479 350.44,478.16 350.06,477.44 349.71,476.77 349.33,476.28 348.91,476.28 V 476.06 C 350.31,476.06 351.82,478.91 351.82,481.14 z"
       id="path4135" /><path
       style="fill:#000000;stroke-width:0"
       inkscape:connector-curvature="0"
       d="M 361.85,479.42 361.88,479.42 361.91,479.42 361.94,479.42 361.95,479.42 361.97,479.42 361.98,479.42 361.99,479.42 362.01,479.43 362.02,479.43 362.04,479.43 362.05,479.43 362.06,479.44 362.07,479.44 362.09,479.45 362.1,479.45 362.11,479.46 362.12,479.47 362.13,479.47 362.14,479.48 362.15,479.49 362.16,479.5 362.16,479.51 362.16,479.51 362.17,479.52 362.17,479.52 362.17,479.53 362.18,479.54 362.18,479.54 362.18,479.55 362.18,479.56 362.18,479.57 362.18,479.57 362.19,479.58 362.19,479.59 362.19,479.6 362.19,479.61 362.19,479.62 C 362.19,479.82 362,479.82 361.86,479.82 H 355.9 C 355.76,479.82 355.57,479.82 355.57,479.62 355.57,479.42 355.76,479.42 355.91,479.42 z"
       id="path4137" /><path
       style="fill:#000000;stroke-width:0"
       inkscape:connector-curvature="0"
       d="M 361.86,477.49 361.87,477.49 361.89,477.49 361.91,477.49 361.94,477.49 361.96,477.49 361.97,477.49 361.98,477.49 362,477.5 362.01,477.5 362.02,477.5 362.04,477.5 362.05,477.51 362.06,477.51 362.08,477.51 362.09,477.52 362.1,477.53 362.11,477.53 362.12,477.54 362.13,477.55 362.14,477.55 362.15,477.56 362.15,477.57 362.16,477.57 362.16,477.58 362.16,477.58 362.17,477.59 362.17,477.6 362.17,477.6 362.18,477.61 362.18,477.62 362.18,477.62 362.18,477.63 362.18,477.64 362.18,477.65 362.19,477.65 362.19,477.66 362.19,477.67 362.19,477.68 362.19,477.69 C 362.19,477.89 362,477.89 361.85,477.89 H 355.91 C 355.76,477.89 355.57,477.89 355.57,477.69 355.57,477.49 355.76,477.49 355.9,477.49 z"
       id="path4139" /><path
       style="fill:#000000;stroke-width:0"
       inkscape:connector-curvature="0"
       d="M 372.09,478.45 372.12,478.45 372.15,478.45 372.18,478.46 372.2,478.46 372.21,478.46 372.23,478.46 372.24,478.46 372.26,478.46 372.27,478.46 372.29,478.47 372.3,478.47 372.31,478.47 372.33,478.48 372.34,478.48 372.35,478.49 372.36,478.5 372.37,478.5 372.38,478.51 372.39,478.52 372.4,478.53 372.41,478.54 372.41,478.54 372.41,478.55 372.42,478.55 372.42,478.56 372.42,478.57 372.42,478.57 372.43,478.58 372.43,478.59 372.43,478.59 372.43,478.6 372.43,478.61 372.43,478.62 372.43,478.63 372.44,478.63 372.44,478.64 372.44,478.65 C 372.44,478.85 372.26,478.85 372.09,478.85 H 366.7 C 366.54,478.85 366.36,478.85 366.36,478.65 366.36,478.45 366.54,478.45 366.7,478.45 z"
       id="path4141" /><path
       style="fill:#000000;stroke-width:0"
       inkscape:connector-curvature="0"
       d="M 379.16,486.65 379.16,486.67 379.17,486.68 379.17,486.69 379.17,486.7 379.17,486.72 379.18,486.73 379.18,486.74 379.18,486.75 379.18,486.76 379.19,486.77 379.19,486.78 379.19,486.8 379.19,486.8 379.19,486.81 379.19,486.81 379.19,486.82 379.19,486.83 379.19,486.83 C 379.19,487 379.07,487.1 378.9,487.1 378.8,487.1 378.53,487.03 378.49,486.67 378.32,487.04 377.97,487.3 377.57,487.3 L 377.58,487.08 C 378.24,487.08 378.38,486.28 378.38,486.23 378.38,486.18 378.36,486.12 378.35,486.08 L 377.87,484.18 C 377.81,483.92 377.58,483.67 377.36,483.48 377.15,483.31 376.84,483.13 376.55,483.13 376.06,483.13 375.91,483.64 375.91,484.04 375.91,484.52 376.2,485.69 376.46,486.2 376.73,486.68 377.16,487.08 377.58,487.08 L 377.57,487.3 C 376.43,487.3 375.2,485.91 375.2,484.48 375.2,483.49 375.81,482.91 376.52,482.91 377.11,482.91 377.58,483.38 377.68,483.48 L 377.69,483.48 C 377.48,482.59 377.36,482.18 377.36,482.16 377.32,482.07 376.98,481.09 375.93,481.09 375.74,481.09 375.41,481.1 375.13,481.19 375.43,481.28 375.54,481.54 375.54,481.71 375.54,481.87 375.43,482.05 375.16,482.05 374.94,482.05 374.62,481.88 374.62,481.48 374.62,481.07 374.99,480.87 375.95,480.87 377.19,480.87 377.91,481.65 378.06,482.24 z"
       id="path4143" /><line
       style="stroke-width:0.398"
       x1="374.48001"
       y1="478.66"
       x2="379.57999"
       y2="478.66"
       id="line4145" /><path
       style="fill:#000000;stroke-width:0"
       inkscape:connector-curvature="0"
       d="M 378.01,476.12 378.01,476.12 378.01,476.12 378.01,476.12 378.01,476.13 378.01,476.13 378.01,476.13 378.01,476.13 378.01,476.14 378.01,476.14 378.01,476.15 378.01,476.15 378.01,476.15 378.01,476.16 378,476.16 378,476.17 378,476.17 378,476.18 377.99,476.18 377.99,476.19 377.99,476.19 377.98,476.2 377.98,476.2 377.98,476.2 377.97,476.2 377.97,476.21 377.97,476.21 377.97,476.21 377.96,476.21 377.96,476.21 377.96,476.22 377.95,476.22 377.95,476.22 377.94,476.22 377.94,476.22 377.94,476.22 377.93,476.22 377.93,476.22 377.92,476.23 377.92,476.23 377.91,476.23 377.91,476.23 377.9,476.23 377.9,476.23 377.89,476.23 377.88,476.23 C 377.65,476.23 376.93,476.15 376.67,476.13 376.59,476.12 376.48,476.11 376.48,475.92 376.48,475.81 376.58,475.81 376.73,475.81 377.21,475.81 377.22,475.72 377.22,475.64 L 377.19,475.44 375.93,470.48 C 375.9,470.37 375.88,470.3 375.88,470.14 375.88,469.57 376.32,469.23 376.79,469.23 377.12,469.23 377.37,469.42 377.54,469.78 377.71,470.16 377.83,470.74 377.83,470.76 377.83,470.86 377.74,470.86 377.71,470.86 377.61,470.86 377.61,470.82 377.58,470.68 377.41,470.03 377.22,469.44 376.82,469.44 376.52,469.44 376.52,469.76 376.52,469.9 376.52,470.14 376.53,470.19 376.58,470.38 z"
       id="path4147" /><path
       style="fill:#000000;stroke-width:0"
       inkscape:connector-curvature="0"
       d="M 384.51,478.1 384.53,478.09 384.56,478.09 384.59,478.08 384.62,478.07 384.65,478.07 384.69,478.06 384.72,478.05 384.76,478.04 384.81,478.02 384.85,478.01 384.89,478 384.93,477.98 384.98,477.96 385.02,477.94 385.07,477.92 385.11,477.89 385.15,477.87 385.19,477.84 385.24,477.81 385.28,477.78 385.31,477.74 385.35,477.7 385.38,477.66 385.41,477.62 385.44,477.58 385.46,477.55 385.47,477.53 385.48,477.5 385.49,477.48 385.5,477.45 385.51,477.43 385.52,477.4 385.52,477.37 385.53,477.34 385.54,477.31 385.54,477.28 385.54,477.25 385.54,477.22 385.55,477.18 C 385.55,476.68 385.2,476.28 384.42,476.28 383.58,476.28 383.23,476.84 383.04,477.69 383.01,477.82 383,477.86 382.9,477.86 382.77,477.86 382.77,477.79 382.77,477.61 V 476.3 C 382.77,476.13 382.77,476.06 382.88,476.06 382.93,476.06 382.94,476.07 383.13,476.26 383.15,476.28 383.15,476.3 383.33,476.49 383.76,476.07 384.21,476.06 384.42,476.06 385.57,476.06 386.02,476.73 386.02,477.44 386.02,477.97 385.72,478.27 385.61,478.38 385.28,478.7 384.89,478.78 384.47,478.86 383.91,478.97 383.25,479.1 383.25,479.68 383.25,480.02 383.51,480.43 384.36,480.43 385.46,480.43 385.51,479.54 385.52,479.23 385.54,479.14 385.62,479.14 385.64,479.14 385.77,479.14 385.77,479.19 385.77,479.38 V 480.38 C 385.77,480.55 385.77,480.62 385.67,480.62 385.61,480.62 385.6,480.62 385.47,480.5 385.44,480.46 385.34,480.37 385.3,480.34 384.92,480.62 384.51,480.62 384.36,480.62 383.15,480.62 382.77,479.95 382.77,479.4 382.77,479.05 382.93,478.77 383.2,478.55 383.52,478.3 383.79,478.23 384.51,478.1 z"
       id="path4149" /><path
       style="fill:#000000;stroke-width:0"
       inkscape:connector-curvature="0"
       d="M 388.13,480.56 386.74,480.45 V 480.14 C 387.39,480.14 387.48,480.08 387.48,479.6 V 476.92 C 387.48,476.48 387.36,476.48 386.7,476.48 V 476.17 C 387.02,476.18 387.55,476.2 387.79,476.2 388.14,476.2 388.49,476.18 388.83,476.17 V 476.48 C 388.17,476.48 388.13,476.53 388.13,476.91 z"
       id="path4151" /><path
       style="fill:#000000;stroke-width:0"
       inkscape:connector-curvature="0"
       d="M 388.17,482.29 388.17,482.32 388.17,482.35 388.16,482.37 388.16,482.4 388.15,482.43 388.15,482.45 388.14,482.48 388.13,482.5 388.12,482.53 388.1,482.55 388.09,482.57 388.08,482.59 388.06,482.61 388.05,482.63 388.03,482.65 388.01,482.67 387.99,482.69 387.97,482.7 387.95,482.72 387.93,482.73 387.91,482.74 387.89,482.76 387.87,482.77 387.84,482.78 387.82,482.79 387.8,482.79 387.77,482.8 387.75,482.81 387.72,482.81 387.7,482.81 387.67,482.81 387.64,482.82 C 387.33,482.82 387.12,482.55 387.12,482.29 387.12,482.02 387.33,481.76 387.64,481.76 387.92,481.76 388.17,481.97 388.17,482.29 z"
       id="path4153" /><path
       style="fill:#000000;stroke-width:0"
       inkscape:connector-curvature="0"
       d="M 390.23,479.59 V 476.92 C 390.23,476.48 390.12,476.48 389.46,476.48 V 476.17 C 389.8,476.18 390.31,476.2 390.58,476.2 390.84,476.2 391.36,476.18 391.7,476.17 V 476.48 C 391.03,476.48 390.92,476.48 390.92,476.92 V 478.75 C 390.92,479.79 391.62,480.34 392.26,480.34 392.89,480.34 393,479.8 393,479.24 V 476.92 C 393,476.48 392.89,476.48 392.22,476.48 V 476.17 C 392.57,476.18 393.08,476.2 393.35,476.2 393.61,476.2 394.12,476.18 394.46,476.17 V 476.48 C 393.94,476.48 393.7,476.48 393.68,476.77 V 478.67 C 393.68,479.53 393.68,479.83 393.38,480.19 393.24,480.36 392.91,480.56 392.33,480.56 391.61,480.56 391.14,480.13 390.86,479.52 V 480.56 L 389.46,480.45 V 480.14 C 390.15,480.14 390.23,480.07 390.23,479.59 z"
       id="path4155" /><path
       style="fill:#000000;stroke-width:0"
       inkscape:connector-curvature="0"
       d="M 397.97,473.79 397.97,473.79 397.97,473.8 397.97,473.8 397.96,473.8 397.96,473.8 397.96,473.81 397.96,473.81 397.96,473.82 397.96,473.82 397.96,473.82 397.95,473.83 397.95,473.83 397.95,473.84 397.94,473.84 397.94,473.85 397.94,473.85 397.93,473.86 397.92,473.87 397.92,473.87 397.92,473.88 397.91,473.88 397.91,473.88 397.91,473.89 397.9,473.89 397.9,473.9 397.89,473.9 397.89,473.91 397.89,473.91 397.88,473.92 397.88,473.92 397.87,473.93 397.86,473.93 397.86,473.94 397.85,473.95 397.85,473.95 397.84,473.96 397.83,473.97 397.83,473.97 397.82,473.98 397.81,473.99 397.8,474 397.8,474 C 396.55,475.26 396.23,477.13 396.23,478.65 396.23,480.38 396.61,482.11 397.84,483.35 397.97,483.47 397.97,483.49 397.97,483.52 397.97,483.59 397.93,483.62 397.87,483.62 397.77,483.62 396.87,482.94 396.29,481.68 395.78,480.59 395.66,479.49 395.66,478.65 395.66,477.88 395.77,476.68 396.32,475.55 396.91,474.33 397.77,473.69 397.87,473.69 397.93,473.69 397.97,473.71 397.97,473.79 z"
       id="path4157" /><path
       style="fill:#000000;stroke-width:0"
       inkscape:connector-curvature="0"
       d="M 403.07,481.14 403.07,481.2 403.07,481.27 403.07,481.34 403.06,481.41 403.06,481.49 403.05,481.57 403.04,481.65 403.03,481.73 403.02,481.81 403,481.9 402.98,481.98 402.96,482.07 402.94,482.15 402.92,482.24 402.89,482.32 402.86,482.4 402.82,482.48 402.79,482.56 402.75,482.63 402.7,482.7 402.66,482.77 402.61,482.83 402.55,482.89 402.49,482.95 402.43,483 402.4,483.02 402.37,483.04 402.33,483.06 402.3,483.08 402.26,483.1 402.22,483.11 402.18,483.13 402.14,483.14 402.1,483.15 402.06,483.16 402.02,483.16 401.97,483.17 401.93,483.17 401.88,483.17 401.87,482.95 C 402.36,482.95 402.42,482.32 402.42,481.75 402.42,481.27 402.34,480.76 402.1,479.77 H 400.02 C 400.19,480.41 400.39,481.21 400.79,481.91 401.05,482.4 401.42,482.95 401.87,482.95 L 401.88,483.17 C 400.5,483.17 398.96,480.37 398.96,478.1 398.96,477.16 399.25,476.06 400.16,476.06 V 476.28 C 399.83,476.28 399.62,476.57 399.62,477.49 399.62,477.91 399.68,478.48 399.94,479.46 H 402.01 C 401.9,479 401.69,478.16 401.31,477.44 400.96,476.77 400.59,476.28 400.16,476.28 V 476.06 C 401.56,476.06 403.07,478.91 403.07,481.14 z"
       id="path4159" /><path
       style="fill:#000000;stroke-width:0"
       inkscape:connector-curvature="0"
       d="M 406.38,478.65 406.37,478.73 406.37,478.8 406.37,478.88 406.37,478.96 406.36,479.13 406.35,479.31 406.33,479.49 406.31,479.68 406.28,479.87 406.25,480.07 406.21,480.28 406.17,480.48 406.11,480.69 406.05,480.9 405.98,481.12 405.9,481.33 405.86,481.43 405.82,481.54 405.77,481.65 405.72,481.75 C 405.12,482.97 404.27,483.62 404.17,483.62 404.11,483.62 404.07,483.58 404.07,483.52 404.07,483.49 404.07,483.47 404.26,483.29 405.23,482.31 405.8,480.73 405.8,478.65 405.8,476.95 405.43,475.2 404.2,473.95 404.07,473.83 404.07,473.82 404.07,473.79 404.07,473.73 404.11,473.69 404.17,473.69 404.27,473.69 405.16,474.36 405.75,475.62 406.26,476.71 406.38,477.82 406.38,478.65 z"
       id="path4161" /><path
       style="fill:#000000;stroke-width:0"
       inkscape:connector-curvature="0"
       d="M 416.15,478.45 416.18,478.45 416.21,478.45 416.24,478.46 416.26,478.46 416.27,478.46 416.29,478.46 416.3,478.46 416.32,478.46 416.33,478.46 416.34,478.47 416.36,478.47 416.37,478.47 416.38,478.48 416.4,478.48 416.41,478.49 416.42,478.5 416.43,478.5 416.44,478.51 416.45,478.52 416.46,478.53 416.46,478.54 416.47,478.54 416.47,478.55 416.47,478.55 416.48,478.56 416.48,478.57 416.48,478.57 416.48,478.58 416.49,478.59 416.49,478.59 416.49,478.6 416.49,478.61 416.49,478.62 416.49,478.63 416.49,478.63 416.49,478.64 416.49,478.65 C 416.49,478.85 416.32,478.85 416.15,478.85 H 410.76 C 410.59,478.85 410.42,478.85 410.42,478.65 410.42,478.45 410.59,478.45 410.76,478.45 z"
       id="path4163" /><path
       style="fill:#000000;stroke-width:0"
       inkscape:connector-curvature="0"
       d="M 430.72,486.68 430.69,486.68 430.67,486.68 430.64,486.68 430.61,486.68 430.58,486.68 430.55,486.68 430.54,486.67 430.52,486.67 430.51,486.67 430.5,486.67 430.48,486.66 430.47,486.66 430.46,486.65 430.44,486.65 430.43,486.64 430.42,486.64 430.4,486.63 430.39,486.63 430.38,486.62 430.36,486.61 430.35,486.6 430.34,486.59 430.33,486.58 430.31,486.57 430.3,486.56 430.29,486.55 C 430.13,486.4 430.11,486.23 430.11,486.16 430.11,485.92 430.29,485.81 430.48,485.81 430.76,485.81 431.03,486.05 431.03,486.45 431.03,486.93 430.57,487.3 429.86,487.3 428.52,487.3 427.19,485.88 427.19,484.48 427.19,483.58 427.77,482.8 428.8,482.8 430.23,482.8 431.06,483.85 431.06,483.97 431.06,484.03 431,484.1 430.94,484.1 430.89,484.1 430.87,484.08 430.81,484 430.03,483.02 428.94,483.02 428.82,483.02 428.2,483.02 427.93,483.51 427.93,484.1 427.93,484.51 428.13,485.47 428.46,486.09 428.77,486.65 429.32,487.08 429.87,487.08 430.21,487.08 430.58,486.95 430.72,486.68 z"
       id="path4165" /><line
       style="stroke-width:0.398"
       x1="420.75"
       y1="478.66"
       x2="437.13"
       y2="478.66"
       id="line4167" /><path
       style="fill:#000000;stroke-width:0"
       inkscape:connector-curvature="0"
       d="M 421.62,469.92 421.62,469.91 421.62,469.89 421.61,469.88 421.61,469.86 421.6,469.83 421.6,469.8 421.59,469.77 421.58,469.73 421.57,469.7 421.57,469.67 421.56,469.66 421.56,469.64 421.56,469.63 421.55,469.61 421.55,469.6 421.55,469.59 421.55,469.57 421.54,469.56 421.54,469.55 421.54,469.54 421.54,469.53 421.54,469.52 421.53,469.51 421.53,469.51 421.53,469.5 421.53,469.49 C 421.53,469.32 421.67,469.23 421.82,469.23 421.94,469.23 422.12,469.3 422.19,469.5 422.2,469.52 422.32,469.99 422.38,470.24 L 422.6,471.13 C 422.66,471.35 422.72,471.57 422.77,471.8 422.81,471.97 422.89,472.26 422.9,472.3 423.05,472.6 423.57,473.51 424.52,473.51 424.97,473.51 425.05,473.14 425.05,472.81 425.05,472.56 424.98,472.29 424.91,471.99 L 424.63,470.83 424.43,470.08 C 424.39,469.88 424.3,469.54 424.3,469.49 424.3,469.32 424.44,469.23 424.59,469.23 424.9,469.23 424.96,469.47 425.04,469.79 425.17,470.35 425.54,471.8 425.63,472.19 425.66,472.32 426.19,473.51 427.27,473.51 427.7,473.51 427.81,473.17 427.81,472.81 427.81,472.25 427.39,471.11 427.19,470.59 427.11,470.35 427.07,470.24 427.07,470.04 427.07,469.57 427.41,469.23 427.88,469.23 428.82,469.23 429.18,470.68 429.18,470.76 429.18,470.86 429.09,470.86 429.06,470.86 428.96,470.86 428.96,470.83 428.92,470.68 428.77,470.15 428.45,469.44 427.9,469.44 427.73,469.44 427.66,469.54 427.66,469.77 427.66,470.02 427.75,470.26 427.84,470.48 428.03,470.99 428.45,472.1 428.45,472.66 428.45,473.31 428.05,473.73 427.3,473.73 426.56,473.73 426.05,473.29 425.68,472.76 425.67,472.89 425.64,473.23 425.36,473.47 425.11,473.68 424.8,473.73 424.55,473.73 423.65,473.73 423.17,473.09 422.99,472.86 422.95,473.43 422.53,473.73 422.08,473.73 421.62,473.73 421.43,473.34 421.34,473.16 421.17,472.81 421.04,472.23 421.04,472.2 421.04,472.1 421.14,472.1 421.15,472.1 421.25,472.1 421.26,472.11 421.32,472.33 421.49,473.03 421.69,473.51 422.05,473.51 422.21,473.51 422.36,473.43 422.36,473.05 422.36,472.84 422.33,472.73 422.2,472.22 z"
       id="path4169" /><path
       style="fill:#000000;stroke-width:0"
       inkscape:connector-curvature="0"
       d="M 432.06,476.12 432.06,476.12 432.06,476.12 432.06,476.12 432.06,476.13 432.06,476.13 432.06,476.13 432.06,476.13 432.06,476.14 432.06,476.14 432.06,476.15 432.06,476.15 432.06,476.15 432.05,476.16 432.05,476.16 432.05,476.17 432.05,476.17 432.04,476.18 432.04,476.18 432.04,476.19 432.03,476.19 432.03,476.2 432.03,476.2 432.02,476.2 432.02,476.2 432.02,476.21 432.02,476.21 432.01,476.21 432.01,476.21 432.01,476.21 432,476.22 432,476.22 432,476.22 431.99,476.22 431.99,476.22 431.98,476.22 431.98,476.22 431.97,476.22 431.97,476.23 431.96,476.23 431.96,476.23 431.95,476.23 431.95,476.23 431.94,476.23 431.94,476.23 431.93,476.23 C 431.7,476.23 430.98,476.15 430.72,476.13 430.64,476.12 430.53,476.11 430.53,475.92 430.53,475.81 430.63,475.81 430.78,475.81 431.26,475.81 431.27,475.72 431.27,475.64 L 431.23,475.44 429.98,470.48 C 429.95,470.37 429.93,470.3 429.93,470.14 429.93,469.57 430.37,469.23 430.84,469.23 431.17,469.23 431.41,469.42 431.58,469.78 431.76,470.16 431.88,470.74 431.88,470.76 431.88,470.86 431.79,470.86 431.76,470.86 431.66,470.86 431.65,470.82 431.62,470.68 431.45,470.03 431.27,469.44 430.87,469.44 430.57,469.44 430.57,469.76 430.57,469.9 430.57,470.14 430.58,470.19 430.63,470.38 z"
       id="path4171" /><path
       style="fill:#000000;stroke-width:0"
       inkscape:connector-curvature="0"
       d="M 436.18,473.48 H 435.94 C 435.92,473.33 435.85,472.92 435.76,472.85 435.71,472.8 435.17,472.8 435.07,472.8 H 433.79 C 434.52,473.45 434.77,473.64 435.18,473.97 435.7,474.38 436.18,474.81 436.18,475.47 436.18,476.32 435.44,476.83 434.55,476.83 433.69,476.83 433.1,476.23 433.1,475.59 433.1,475.23 433.4,475.2 433.47,475.2 433.64,475.2 433.84,475.31 433.84,475.57 433.84,475.69 433.79,475.93 433.43,475.93 433.64,476.43 434.12,476.58 434.45,476.58 435.14,476.58 435.5,476.04 435.5,475.47 435.5,474.87 435.07,474.39 434.85,474.14 L 433.17,472.48 C 433.1,472.42 433.1,472.41 433.1,472.21 H 435.97 z"
       id="path4173" /><path
       style="fill:#000000;stroke-width:0"
       inkscape:connector-curvature="0"
       d="M 442.16,484.92 442.16,484.94 442.16,484.97 442.16,484.99 442.15,485.02 442.14,485.04 442.14,485.07 442.13,485.09 442.12,485.11 442.11,485.14 442.1,485.16 442.09,485.18 442.07,485.2 442.06,485.22 442.04,485.24 442.03,485.26 442.01,485.28 441.99,485.3 441.97,485.32 441.95,485.33 441.93,485.35 441.91,485.36 441.89,485.38 441.87,485.39 441.84,485.4 441.82,485.41 441.79,485.42 441.77,485.43 441.74,485.43 441.72,485.44 441.69,485.44 441.66,485.44 441.63,485.44 C 441.3,485.44 441.1,485.17 441.1,484.92 441.1,484.65 441.33,484.39 441.62,484.39 441.96,484.39 442.16,484.67 442.16,484.92 z"
       id="path4175" /><path
       style="fill:#000000;stroke-width:0"
       inkscape:connector-curvature="0"
       d="M 442.86,481.14 442.85,481.2 442.85,481.27 442.85,481.34 442.85,481.41 442.84,481.49 442.83,481.57 442.82,481.65 442.81,481.73 442.8,481.81 442.78,481.9 442.76,481.98 442.74,482.07 442.72,482.15 442.7,482.24 442.67,482.32 442.64,482.4 442.6,482.48 442.57,482.56 442.53,482.63 442.48,482.7 442.44,482.77 442.39,482.83 442.33,482.89 442.28,482.95 442.21,483 442.18,483.02 442.15,483.04 442.11,483.06 442.08,483.08 442.04,483.1 442,483.11 441.96,483.13 441.92,483.14 441.88,483.15 441.84,483.16 441.8,483.16 441.75,483.17 441.71,483.17 441.66,483.17 441.65,482.95 C 442.14,482.95 442.2,482.32 442.2,481.75 442.2,481.27 442.12,480.76 441.88,479.77 H 439.8 C 439.97,480.41 440.17,481.2 440.57,481.91 440.83,482.4 441.2,482.95 441.65,482.95 L 441.66,483.17 C 440.28,483.17 438.75,480.37 438.75,478.1 438.75,477.16 439.03,476.06 439.94,476.06 V 476.28 C 439.61,476.28 439.4,476.57 439.4,477.49 439.4,477.91 439.46,478.48 439.72,479.46 H 441.79 C 441.68,479 441.47,478.16 441.09,477.44 440.75,476.77 440.37,476.28 439.94,476.28 V 476.06 C 441.34,476.06 442.86,478.91 442.86,481.14 z"
       id="path4177" /></g></svg>
